<svg width="350" height="338" viewBox="0 0 350 338" fill="none" xmlns="http://www.w3.org/2000/svg">
<path d="M18.5583 21.981C17.1402 19.1989 19.6007 16.0218 22.6492 16.6988L30.7052 18.488C125.747 39.5962 224.27 39.5285 319.283 18.2898L325.777 16.8381C329.245 16.0629 332.152 19.5085 330.805 22.7966C293.418 114.02 292.478 216.115 328.177 308.011L330.22 313.269C331.638 316.919 327.966 320.478 324.353 318.969C228.92 279.086 119.867 279.458 24.3421 319.121C21.1052 320.465 17.8343 317.134 19.3591 313.978L21.6201 309.298C65.5781 218.315 64.4452 112.007 18.5583 21.981Z" fill="url(#paint0_linear_3024_3587)"/>
<path d="M8.50347 1.37676C4.74493 0.541844 1.71102 4.45876 3.45917 7.88916C53.735 106.546 54.9763 223.039 6.81404 322.744L4.3333 327.88C2.44799 331.783 6.49364 335.845 10.4447 334.204C115.131 290.727 234.642 290.323 339.225 334.038C343.592 335.863 348.036 331.562 346.32 327.144L344.077 321.369C304.954 220.64 305.985 108.738 346.956 8.74697C348.588 4.76404 345.066 0.59071 340.866 1.52988L327.7 4.47349C227.506 26.8749 123.61 26.9463 23.3853 4.68259L8.50347 1.37676Z" stroke="white"/>
<defs>
<linearGradient id="paint0_linear_3024_3587" x1="91.771" y1="15" x2="91.771" y2="189.167" gradientUnits="userSpaceOnUse">
<stop stop-color="#F6BCCC"/>
<stop offset="1" stop-color="#F87498"/>
</linearGradient>
</defs>
</svg>
