<svg width="300" height="300" viewBox="0 0 300 300" fill="none" xmlns="http://www.w3.org/2000/svg">
<path d="M111.604 7.571C112.745 5.72588 115.148 5.12654 117.022 6.22005L139.348 19.2501C142.079 20.8437 145.491 20.6798 148.057 18.8318L169.031 3.72188C170.791 2.45383 173.241 2.82001 174.554 4.54728L190.194 25.1293C192.107 27.6465 195.323 28.8011 198.4 28.0755L223.56 22.1422C225.671 21.6443 227.795 22.9203 228.347 25.0183L234.92 50.0189C235.724 53.0765 238.253 55.3739 241.373 55.881L266.889 60.0278C269.03 60.3758 270.504 62.3672 270.211 64.5167L266.716 90.1296C266.289 93.2621 267.746 96.3525 270.435 98.0153L292.422 111.611C294.267 112.752 294.866 115.155 293.772 117.029L280.742 139.355C279.149 142.086 279.313 145.499 281.161 148.064L296.271 169.038C297.539 170.798 297.173 173.248 295.445 174.561L274.863 190.201C272.346 192.114 271.191 195.33 271.917 198.407L277.85 223.567C278.348 225.678 277.072 227.802 274.974 228.354L249.974 234.927C246.916 235.731 244.619 238.26 244.112 241.381L239.965 266.896C239.617 269.037 237.625 270.511 235.476 270.218L209.863 266.723C206.73 266.296 203.64 267.753 201.977 270.442L188.382 292.429C187.241 294.274 184.837 294.873 182.963 293.78L160.637 280.749C157.907 279.156 154.494 279.32 151.929 281.168L130.954 296.278C129.194 297.546 126.744 297.18 125.432 295.452L109.791 274.87C107.879 272.353 104.663 271.198 101.586 271.924L76.4256 277.857C74.3141 278.355 72.1906 277.079 71.6389 274.981L65.0657 249.981C64.2618 246.923 61.7326 244.626 58.612 244.119L33.0966 239.972C30.9553 239.624 29.4817 237.632 29.7749 235.483L33.2694 209.87C33.6967 206.737 32.2392 203.647 29.5502 201.984L7.56394 188.389C5.71882 187.248 5.11949 184.844 6.21299 182.971L19.2431 160.645C20.8367 157.914 20.6727 154.501 18.8248 151.936L3.71483 130.962C2.44678 129.201 2.81296 126.751 4.54022 125.439L25.1222 109.799C27.6395 107.886 28.7941 104.67 28.0684 101.593L22.1352 76.4326C21.6373 74.3211 22.9132 72.1976 25.0113 71.646L50.0118 65.0728C53.0694 64.2689 55.3668 61.7396 55.874 58.619L60.0207 33.1036C60.3687 30.9623 62.3602 29.4887 64.5096 29.782L90.1226 33.2764C93.2551 33.7038 96.3455 32.2463 98.0082 29.5573L111.604 7.571Z" fill="url(#paint0_linear_3024_3523)" stroke="white" stroke-width="4"/>
<defs>
<linearGradient id="paint0_linear_3024_3523" x1="35.9784" y1="20.7429" x2="77.8395" y2="188.639" gradientUnits="userSpaceOnUse">
<stop stop-color="#FFE4B1"/>
<stop offset="1" stop-color="#FCB600"/>
</linearGradient>
</defs>
</svg>
