<svg width="3848" height="207" viewBox="0 0 3848 207" fill="none" xmlns="http://www.w3.org/2000/svg">
<g clip-path="url(#clip0_2568_2631)">
<path d="M1959.09 75.9986L1959.18 101.917L1955.47 103.135L1943.83 88.3689L1943.7 106.999L1939.99 108.217L1924 87.5302L1927.95 86.2323L1939.91 101.877L1939.94 82.2886L1943.15 81.2302L1955.35 96.7955L1955.11 77.2965L1959.09 75.9886V75.9986Z" fill="#808080"/>
<path d="M1982.85 86.7015L1969.87 90.6952C1971.01 93.0215 1973.19 94.3893 1976.3 93.4308C1977.91 92.9316 1978.99 92.073 1979.33 90.8349L1983.33 89.5969C1983.22 92.8318 1980.85 95.4476 1977.27 96.5558C1972.07 98.1633 1967.36 95.5774 1965.81 90.775C1964.26 86.0126 1966.55 81.2402 1971.58 79.6827C1977.06 77.9954 1981.8 81.0206 1982.86 86.6915L1982.85 86.7015ZM1969.15 88.2091L1978.43 85.3537C1977.36 82.7778 1975.15 81.9191 1972.58 82.7079C1969.83 83.5565 1968.83 85.8229 1969.14 88.2191L1969.15 88.2091Z" fill="#808080"/>
<path d="M2012.05 59.2652L2019.35 83.7762L2015.71 84.8045L2015.32 83.4966C2014.23 85.0042 2012.61 86.1324 2010.48 86.7415C2005.81 88.0693 2000.93 85.3337 1999.5 80.5613C1998.1 75.8688 2000.72 71.0065 2005.4 69.6786C2007.52 69.0796 2009.52 69.1894 2011.25 69.8583L2008.41 60.2936L2012.05 59.2652ZM2014.15 79.5928L2012.41 73.7621C2010.66 72.3843 2008.73 72.2545 2006.9 72.7737C2003.86 73.6323 2002.33 76.6475 2003.18 79.513C2004.04 82.4084 2006.99 84.1955 2010.04 83.3369C2011.89 82.8177 2013.43 81.6995 2014.15 79.5928Z" fill="#808080"/>
<path d="M2040.94 69.2293C2042.34 74.2214 2039.64 78.7741 2034.45 80.1619C2029.26 81.5397 2024.56 78.9539 2023.16 73.9618C2021.77 68.9697 2024.46 64.417 2029.66 63.0292C2034.85 61.6514 2039.55 64.2373 2040.94 69.2293ZM2037.25 70.2078C2036.39 67.1227 2033.59 65.4753 2030.57 66.284C2027.55 67.0828 2026 69.8883 2026.86 72.9734C2027.71 76.0285 2030.52 77.7058 2033.54 76.8971C2036.56 76.0884 2038.1 73.2629 2037.25 70.2078Z" fill="#808080"/>
<path d="M2063.2 62.6298L2065.6 71.7553L2061.88 72.6838L2059.53 63.768C2058.75 60.7728 2056.69 59.5847 2053.97 60.2536C2052.36 60.653 2050.84 61.9609 2049.94 63.8978L2052.84 74.9402L2049.12 75.8688L2044.82 59.5048L2048.53 58.5763L2048.92 60.044C2050.07 58.4565 2051.72 57.3383 2053.86 56.8091C2058.22 55.7208 2061.95 57.9074 2063.19 62.6398L2063.2 62.6298Z" fill="#808080"/>
<path d="M2066.61 49.4308C2065.56 49.311 2064.92 48.7619 2064.72 47.9232C2064.41 46.7052 2065.21 45.5071 2066.47 45.2175C2067.76 44.908 2069.03 45.6069 2069.34 46.825C2069.47 47.3441 2069.49 47.6037 2069.11 49.1013L2068.12 53.3346L2065.86 53.8738L2066.61 49.4408V49.4308Z" fill="#808080"/>
<path d="M2092.86 65.1459C2091.52 66.0045 2090.33 66.4238 2089.19 66.6834C2084.87 67.6718 2081.98 65.675 2080.96 61.4417L2079.26 54.373L2075.28 55.2816L2074.55 52.2364L2078.53 51.3278L2077.08 45.2775L2080.82 44.4288L2082.27 50.4792L2088.52 49.0515L2089.25 52.0966L2083 53.5243L2084.7 60.5931C2085.27 62.9693 2086.74 63.7081 2088.82 63.2289C2089.82 62.9993 2090.76 62.4901 2091.54 61.9409L2092.88 65.1459H2092.86Z" fill="#808080"/>
<path d="M2122.95 41.7431L2126.53 58.2768L2122.81 59.0356L2122.46 57.4181C2121.26 59.0256 2119.58 60.1438 2117.38 60.5931C2112.98 61.5016 2109.36 59.0456 2108.34 54.2931L2106.36 45.1477L2110.08 44.3889L2112 53.3247C2112.66 56.3499 2114.72 57.6877 2117.42 57.1386C2119.08 56.7991 2120.62 55.5312 2121.62 53.5543L2119.24 42.5119L2122.95 41.7531V41.7431Z" fill="#808080"/>
<path d="M2140.04 52.9952C2142.25 52.5759 2143.62 51.5874 2143.37 50.2795C2143.17 49.2911 2142.2 48.742 2140.7 48.7719L2136.81 48.8518C2134.12 48.9217 2131.44 48.113 2130.84 45.1078C2130.21 41.8929 2132.66 39.3769 2136.9 38.5782C2140.2 37.9591 2144.22 38.3286 2145.45 42.6017L2141.97 43.2607C2141.43 41.4935 2139.67 41.0941 2137.49 41.5135C2135.31 41.9328 2134.27 42.9312 2134.51 44.0894C2134.68 44.968 2135.5 45.6968 2137.56 45.6369L2140.85 45.5271C2143.51 45.4971 2146.27 46.1162 2146.9 49.321C2147.6 52.8155 2144.81 55.2117 2140.54 56.0204C2136.52 56.7792 2132.78 55.8806 2131.47 51.5874L2134.95 50.9684C2135.76 52.9353 2137.48 53.4944 2140.05 53.0052L2140.04 52.9952Z" fill="#808080"/>
<path d="M2168.9 43.0111L2155.51 45.3474C2156.33 47.7935 2158.32 49.4209 2161.52 48.8618C2163.19 48.5722 2164.36 47.8534 2164.86 46.6753L2168.99 45.9564C2168.46 49.1513 2165.77 51.4477 2162.07 52.0966C2156.7 53.0351 2152.37 49.8802 2151.46 44.9281C2150.56 40.0159 2153.45 35.563 2158.64 34.6544C2164.3 33.666 2168.59 37.2603 2168.9 43.0111ZM2155.11 42.7914L2164.69 41.1141C2163.97 38.4284 2161.9 37.2902 2159.24 37.7595C2156.42 38.2587 2155.11 40.3753 2155.11 42.7914Z" fill="#808080"/>
<path d="M2200.15 39.3169L2204.01 38.7379C2204 42.6716 2200.99 45.8466 2196.69 46.4955C2191.55 47.2643 2187.05 44.0494 2186.26 39.0773C2185.48 34.1352 2188.78 29.7122 2193.91 28.9435C2198.21 28.2945 2202.06 30.4511 2203.28 34.1951L2199.42 34.7742C2198.65 32.9671 2196.74 31.9387 2194.43 32.2881C2191.26 32.7674 2189.57 35.493 2190.04 38.5082C2190.51 41.5234 2192.98 43.6301 2196.14 43.1608C2198.44 42.8214 2199.95 41.2838 2200.13 39.3269L2200.15 39.3169Z" fill="#808080"/>
<path d="M2227.61 33.2167C2228.33 38.3385 2225.05 42.5218 2219.71 43.2307C2214.38 43.9396 2210.06 40.7846 2209.35 35.6528C2208.63 30.5209 2211.91 26.3476 2217.24 25.6387C2222.58 24.9298 2226.89 28.0848 2227.61 33.2167ZM2223.81 33.7258C2223.37 30.5609 2220.82 28.574 2217.71 28.9934C2214.61 29.4127 2212.71 31.9886 2213.15 35.1536C2213.59 38.2886 2216.14 40.3054 2219.24 39.886C2222.34 39.4667 2224.25 36.8609 2223.81 33.7258Z" fill="#808080"/>
<path d="M2262 27.975L2263.15 37.5797L2259.38 38.009L2258.23 28.4043C2257.88 25.4391 2256.11 24.3408 2253.66 24.6104C2251.97 24.8001 2250.44 25.5888 2249.35 27.4159C2249.53 27.9351 2249.64 28.5441 2249.71 29.1531L2250.88 38.9775L2247.11 39.4068L2245.94 29.5825C2245.59 26.6172 2243.85 25.7286 2241.62 25.9782C2239.83 26.1779 2238.3 27.0764 2237.26 28.8936L2238.62 40.3553L2234.81 40.7846L2232.81 24.0013L2236.62 23.572L2236.8 24.9998C2237.94 23.7118 2239.4 22.8232 2241.67 22.5636C2244.13 22.2841 2246.2 22.8831 2247.67 24.3408C2249.17 22.5437 2251.01 21.5053 2253.54 21.2158C2258.05 20.7066 2261.44 23.0029 2262.03 27.965L2262 27.975Z" fill="#808080"/>
<path d="M2267.63 13.9673C2267.5 12.6394 2268.46 11.5711 2269.83 11.4413C2271.15 11.3115 2272.35 12.1702 2272.48 13.4981C2272.61 14.826 2271.61 15.8943 2270.29 16.024C2268.92 16.1538 2267.77 15.2952 2267.63 13.9673ZM2272.59 19.7381L2274.29 36.5514L2270.51 36.9108L2268.81 20.0976L2272.59 19.7381Z" fill="#808080"/>
<path d="M2294.18 28.624L2298.07 28.2945C2297.79 32.2183 2294.57 35.1936 2290.24 35.553C2285.06 35.9923 2280.79 32.4879 2280.35 27.4758C2279.9 22.4938 2283.49 18.3004 2288.67 17.8611C2293 17.4917 2296.7 19.8879 2297.66 23.7118L2293.77 24.0413C2293.13 22.1843 2291.28 21.0361 2288.97 21.2358C2285.77 21.5053 2283.89 24.1212 2284.17 27.1563C2284.44 30.1915 2286.75 32.4579 2289.94 32.1883C2292.26 31.9986 2293.86 30.5609 2294.18 28.624Z" fill="#808080"/>
<path d="M2323.69 30.0816C2325.93 29.9419 2327.44 29.1331 2327.35 27.8053C2327.29 26.7969 2326.39 26.1379 2324.9 25.9682L2321.03 25.5489C2318.35 25.2793 2315.8 24.1311 2315.61 21.086C2315.4 17.8212 2318.18 15.6346 2322.49 15.3751C2325.84 15.1754 2329.77 16.054 2330.43 20.447L2326.9 20.6566C2326.6 18.8395 2324.89 18.2205 2322.69 18.3503C2320.47 18.4801 2319.32 19.3487 2319.39 20.5268C2319.45 21.4254 2320.17 22.2441 2322.21 22.4438L2325.47 22.7533C2328.11 23.0628 2330.77 24.0213 2330.97 27.2861C2331.2 30.8404 2328.11 32.8572 2323.77 33.1268C2319.69 33.3764 2316.09 32.0086 2315.36 27.5856L2318.9 27.4059C2319.43 29.4626 2321.07 30.2314 2323.68 30.0717L2323.69 30.0816Z" fill="#808080"/>
<path d="M2353.83 14.2768L2354.62 31.1499L2350.83 31.3197L2350.77 29.9918C2349.35 31.1699 2347.5 31.8988 2345.29 31.9986C2340.43 32.2182 2336.34 28.4443 2336.1 23.5221C2335.87 18.5999 2339.6 14.4765 2344.45 14.2568C2346.66 14.157 2348.57 14.7161 2350.09 15.7644L2350.03 14.4366L2353.82 14.2668L2353.83 14.2768ZM2350.58 25.9382L2350.29 19.838C2348.92 18.1007 2347.08 17.5316 2345.17 17.6215C2342 17.7613 2339.79 20.3471 2339.93 23.3623C2340.08 26.3775 2342.51 28.7538 2345.68 28.614C2347.6 28.5241 2349.37 27.8053 2350.58 25.9482V25.9382Z" fill="#808080"/>
<path d="M2378.64 21.0061L2378.92 30.4211L2375.08 30.5309L2374.82 21.3356C2374.73 18.2505 2372.99 16.643 2370.19 16.7229C2368.53 16.7728 2366.75 17.7213 2365.44 19.4086L2365.76 30.8005L2361.93 30.9103L2361.44 14.0272L2365.27 13.9174L2365.31 15.425C2366.79 14.127 2368.65 13.3882 2370.85 13.3283C2375.35 13.2085 2378.5 16.1338 2378.64 21.0261V21.0061Z" fill="#808080"/>
<path d="M2392.59 27.6056C2394.84 27.5756 2396.38 26.8468 2396.36 25.5089C2396.35 24.5005 2395.49 23.7917 2394.01 23.562L2390.17 22.963C2387.51 22.5636 2385.03 21.2956 2384.99 18.2405C2384.95 14.9657 2387.84 12.919 2392.15 12.869C2395.51 12.8291 2399.39 13.8974 2399.81 18.3204L2396.27 18.3603C2396.06 16.5332 2394.39 15.8343 2392.18 15.8543C2389.97 15.8842 2388.76 16.683 2388.78 17.8711C2388.79 18.7697 2389.46 19.6283 2391.49 19.9278L2394.74 20.3971C2397.36 20.8364 2399.95 21.9146 2399.99 25.1894C2400.03 28.7438 2396.85 30.6208 2392.5 30.6707C2388.4 30.7206 2384.89 29.1731 2384.38 24.7302H2387.93C2388.36 26.8069 2389.96 27.6455 2392.57 27.6156L2392.59 27.6056Z" fill="#808080"/>
<path d="M2417.28 19.4786C2417.31 17.0324 2419.55 14.9757 2422.02 14.9957C2424.56 15.0256 2426.72 17.1223 2426.69 19.5684C2426.67 22.0145 2424.46 24.0712 2421.92 24.0513C2419.45 24.0313 2417.26 21.9247 2417.28 19.4786Z" fill="#808080"/>
<path d="M2479.7 7.43771L2470.3 31.6691L2466.39 31.5194L2460.92 13.6878L2453.98 31.0401L2450.08 30.8904L2442.72 6L2446.88 6.15975L2452.31 24.9299L2459.51 6.64897L2462.9 6.77876L2468.59 25.5589L2475.5 7.26798L2479.7 7.42773V7.43771Z" fill="#808080"/>
<path d="M2497.95 25.7586L2484.37 24.9399C2484.57 27.5058 2486.11 29.5425 2489.35 29.7422C2491.04 29.8421 2492.36 29.4227 2493.13 28.3844L2497.33 28.634C2496.03 31.6192 2492.86 33.2267 2489.1 32.997C2483.65 32.6676 2480.22 28.604 2480.54 23.582C2480.86 18.6 2484.75 14.9358 2490.01 15.2553C2495.76 15.6047 2499.06 20.0876 2497.95 25.7486V25.7586ZM2484.6 22.364L2494.32 22.953C2494.28 20.1775 2492.53 18.59 2489.85 18.4302C2486.98 18.2605 2485.2 20.0177 2484.62 22.364H2484.6Z" fill="#808080"/>
<path d="M2534.08 27.5757C2533.6 32.7275 2529.44 36.0821 2524.09 35.6129C2518.73 35.1436 2515.25 31.12 2515.72 25.9582C2516.19 20.7965 2520.36 17.4518 2525.72 17.921C2531.07 18.3903 2534.56 22.4139 2534.08 27.5757ZM2530.26 27.2362C2530.56 24.0513 2528.53 21.5652 2525.41 21.2857C2522.29 21.0061 2519.84 23.1028 2519.54 26.2877C2519.25 29.4427 2521.27 31.9587 2524.4 32.2382C2527.52 32.5078 2529.98 30.3812 2530.26 27.2362Z" fill="#808080"/>
<path d="M2558.56 30.0817C2558.01 35.0138 2553.65 38.5282 2548.81 38.0091C2546.61 37.7794 2544.82 36.9308 2543.51 35.6728L2543.36 36.9907L2539.55 36.5813L2542.39 11.2117L2546.2 11.6211L2545.09 21.4854C2546.64 20.5668 2548.59 20.1176 2550.78 20.3572C2555.61 20.8763 2559.1 25.2194 2558.55 30.0817H2558.56ZM2554.75 29.6823C2555.08 26.717 2553.05 24.0014 2549.87 23.6719C2547.96 23.4722 2546.14 23.8915 2544.65 25.499L2543.96 31.6791C2545.04 33.5661 2546.73 34.3948 2548.64 34.5945C2551.82 34.934 2554.42 32.6776 2554.75 29.6823Z" fill="#808080"/>
<path d="M2570.94 37.4799C2573.17 37.7595 2574.8 37.2303 2574.97 35.9124C2575.1 34.914 2574.35 34.0953 2572.92 33.666L2569.2 32.5577C2566.62 31.8089 2564.34 30.2215 2564.74 27.1863C2565.16 23.9415 2568.31 22.3041 2572.59 22.8232C2575.92 23.2326 2579.62 24.8101 2579.42 29.243L2575.9 28.8137C2575.95 26.9766 2574.41 26.0581 2572.21 25.7885C2570 25.5189 2568.7 26.1579 2568.55 27.3261C2568.44 28.2147 2568.98 29.1532 2570.96 29.7223L2574.11 30.6208C2576.65 31.4096 2579.07 32.8273 2578.65 36.0721C2578.19 39.6065 2574.77 41.0342 2570.45 40.4951C2566.39 39.9959 2563.12 37.9991 2563.25 33.5162L2566.76 33.9855C2566.89 36.1021 2568.35 37.1504 2570.96 37.4699L2570.94 37.4799Z" fill="#808080"/>
<path d="M2597.62 37.4699L2601.49 38.009C2600.3 41.7631 2596.48 43.9596 2592.18 43.3605C2587.03 42.6417 2583.69 38.2886 2584.41 33.3065C2585.14 28.3644 2589.61 25.0597 2594.76 25.7785C2599.07 26.3776 2602.1 29.5226 2602.16 33.4563L2598.29 32.9172C2598.1 30.9603 2596.57 29.4427 2594.27 29.1232C2591.09 28.6839 2588.65 30.8105 2588.21 33.8357C2587.77 36.8609 2589.49 39.5666 2592.67 40.0158C2594.97 40.3353 2596.87 39.297 2597.63 37.4699H2597.62Z" fill="#808080"/>
<path d="M2624.61 40.3852L2611.19 38.2786C2611.14 40.8545 2612.46 43.031 2615.66 43.5302C2617.33 43.7898 2618.69 43.4903 2619.56 42.5418L2623.7 43.1908C2622.12 46.0363 2618.8 47.3342 2615.09 46.7551C2609.7 45.9164 2606.69 41.5434 2607.51 36.5813C2608.32 31.6492 2612.56 28.3844 2617.76 29.1931C2623.44 30.0817 2626.27 34.8541 2624.61 40.3852ZM2611.67 35.7426L2621.28 37.2502C2621.51 34.4846 2619.92 32.7474 2617.27 32.3281C2614.43 31.8788 2612.49 33.4763 2611.67 35.7426Z" fill="#808080"/>
<path d="M2636.93 47.2543C2639.14 47.6337 2640.8 47.1944 2641.03 45.8765C2641.21 44.8881 2640.51 44.0394 2639.1 43.5402L2635.44 42.2523C2632.9 41.3737 2630.7 39.6864 2631.25 36.6811C2631.84 33.4563 2635.06 31.9687 2639.31 32.7075C2642.62 33.2766 2646.23 35.0238 2645.81 39.4467L2642.32 38.8477C2642.47 37.0106 2640.96 36.0222 2638.78 35.6528C2636.6 35.2834 2635.27 35.8525 2635.05 37.0206C2634.89 37.9092 2635.39 38.8677 2637.33 39.5266L2640.43 40.575C2642.92 41.4735 2645.26 43.0111 2644.68 46.2359C2644.04 49.7404 2640.56 50.9984 2636.27 50.2595C2632.25 49.5706 2629.07 47.4141 2629.43 42.9512L2632.91 43.5902C2632.94 45.7068 2634.35 46.835 2636.93 47.2743V47.2543Z" fill="#808080"/>
<path d="M2657.28 50.8985C2659.49 51.3079 2661.15 50.8885 2661.41 49.5806C2661.6 48.5922 2660.9 47.7336 2659.5 47.2144L2655.85 45.8765C2653.33 44.968 2651.15 43.2407 2651.75 40.2455C2652.37 37.0306 2655.63 35.5929 2659.86 36.3816C2663.16 37.0006 2666.74 38.7978 2666.25 43.2108L2662.78 42.5618C2662.95 40.7247 2661.46 39.7163 2659.28 39.317C2657.11 38.9076 2655.76 39.4667 2655.54 40.6349C2655.36 41.5135 2655.84 42.4819 2657.78 43.1708L2660.87 44.2591C2663.35 45.1976 2665.68 46.7651 2665.04 49.98C2664.35 53.4744 2660.85 54.6825 2656.58 53.8937C2652.57 53.1449 2649.42 50.9484 2649.85 46.4955L2653.32 47.1744C2653.32 49.2911 2654.71 50.4293 2657.28 50.9085V50.8985Z" fill="#808080"/>
<path d="M2687.88 52.0766L2674.56 49.4109C2674.39 51.9868 2675.61 54.2132 2678.8 54.8422C2680.46 55.1717 2681.83 54.9321 2682.73 54.0136L2686.85 54.8422C2685.14 57.6178 2681.77 58.776 2678.08 58.0371C2672.73 56.9688 2669.92 52.476 2670.96 47.5439C2671.99 42.6516 2676.37 39.5666 2681.53 40.5949C2687.16 41.7231 2689.79 46.6153 2687.88 52.0667V52.0766ZM2675.17 46.8849L2684.71 48.7919C2685.06 46.0363 2683.56 44.2291 2680.93 43.7C2678.11 43.1309 2676.1 44.6385 2675.17 46.8749V46.8849Z" fill="#808080"/>
<path d="M2715.34 39.3169L2709.7 64.2373L2705.99 63.4385L2706.29 62.1007C2704.6 62.9094 2702.61 63.149 2700.45 62.6897C2695.7 61.6614 2692.76 56.9788 2693.85 52.1365C2694.94 47.3641 2699.63 44.319 2704.38 45.3473C2706.54 45.8166 2708.23 46.835 2709.43 48.2328L2711.63 38.5082L2715.34 39.307V39.3169ZM2707.19 58.137L2708.53 52.2064C2707.67 50.1797 2706.05 49.1713 2704.18 48.7619C2701.08 48.093 2698.27 50.0299 2697.6 52.9453C2696.94 55.8906 2698.65 58.8359 2701.74 59.5048C2703.61 59.9042 2705.52 59.6546 2707.19 58.137Z" fill="#808080"/>
<path d="M2747.57 64.2872C2746.32 69.3192 2741.7 72.0349 2736.48 70.8068C2731.26 69.5788 2728.41 65.0959 2729.66 60.0739C2730.91 55.0419 2735.53 52.3263 2740.75 53.5543C2745.97 54.7824 2748.82 59.2652 2747.57 64.2972V64.2872ZM2743.84 63.4086C2744.61 60.3036 2742.98 57.548 2739.93 56.8291C2736.89 56.1102 2734.14 57.8275 2733.38 60.9425C2732.62 64.0176 2734.24 66.8032 2737.28 67.5221C2740.32 68.2409 2743.08 66.4837 2743.83 63.4086H2743.84Z" fill="#808080"/>
<path d="M2771.91 61.5516L2759.83 75.9986L2756.57 75.1998L2752.99 56.899L2756.92 57.8674L2759.42 70.9766L2767.97 60.5931L2771.91 61.5616V61.5516Z" fill="#808080"/>
<path d="M2789.67 75.9686L2776.51 72.604C2776.2 75.1599 2777.29 77.4562 2780.44 78.255C2782.08 78.6743 2783.46 78.5046 2784.41 77.6359L2788.48 78.6743C2786.62 81.36 2783.18 82.3385 2779.55 81.4099C2774.27 80.0621 2771.7 75.4295 2773.01 70.5572C2774.31 65.7249 2778.85 62.8695 2783.95 64.1774C2789.51 65.6051 2791.86 70.6271 2789.66 75.9686H2789.67ZM2777.25 70.1179L2786.67 72.5241C2787.18 69.7884 2785.78 67.9114 2783.17 67.2425C2780.39 66.5336 2778.3 67.9314 2777.25 70.1179Z" fill="#808080"/>
<path d="M2808.34 70.6071L2807.4 74.0117C2804.69 73.4127 2802.4 73.852 2800.37 75.3695L2797.52 85.6432L2793.83 84.6647L2798.34 68.3507L2802.05 69.3291L2801.44 71.5456C2803.42 70.3176 2805.78 69.9282 2808.34 70.6071Z" fill="#808080"/>
<path d="M2844.16 71.7154L2837.1 96.2862L2833.44 95.2878L2833.82 93.9699C2832.08 94.6888 2830.09 94.8186 2827.96 94.2395C2823.27 92.9615 2820.61 88.1292 2821.98 83.3469C2823.33 78.6443 2828.19 75.8588 2832.88 77.1367C2835.01 77.7158 2836.64 78.834 2837.75 80.2917L2840.51 70.707L2844.17 71.7054L2844.16 71.7154ZM2834.94 90.0661L2836.62 84.2155C2835.87 82.1488 2834.31 81.0505 2832.47 80.5413C2829.42 79.7126 2826.5 81.4898 2825.67 84.3552C2824.83 87.2606 2826.38 90.2958 2829.43 91.1344C2831.27 91.6337 2833.2 91.4939 2834.94 90.0661Z" fill="#808080"/>
<path d="M2862.22 95.6473L2849.13 92.0031C2848.76 94.559 2849.82 96.8654 2852.93 97.734C2854.56 98.1932 2855.94 98.0535 2856.93 97.2048L2860.97 98.333C2859.05 100.979 2855.6 101.887 2851.98 100.879C2846.74 99.4213 2844.27 94.7288 2845.69 89.8965C2847.09 85.0941 2851.7 82.3385 2856.77 83.7463C2862.3 85.2838 2864.54 90.3557 2862.22 95.6573V95.6473ZM2849.94 89.537L2859.3 92.1429C2859.87 89.4172 2858.51 87.5103 2855.92 86.7914C2853.16 86.0226 2851.04 87.3705 2849.94 89.537Z" fill="#808080"/>
<path d="M2878.52 107.598C2876.91 107.708 2875.67 107.508 2874.53 107.189C2870.28 105.991 2868.75 102.866 2869.99 98.6924L2872.06 91.7136L2868.12 90.6053L2869.01 87.6001L2872.95 88.7083L2874.72 82.7379L2878.41 83.7762L2876.63 89.7467L2882.8 91.4839L2881.91 94.4891L2875.74 92.7519L2873.67 99.7308C2872.98 102.077 2873.89 103.415 2875.94 103.994C2876.93 104.274 2878.01 104.274 2878.96 104.174L2878.52 107.608V107.598Z" fill="#808080"/>
<path d="M2904.77 97.694L2899.94 113.918L2896.3 112.89L2896.68 111.612C2894.95 112.281 2892.95 112.391 2890.83 111.792C2886.16 110.474 2883.53 105.611 2884.94 100.879C2886.34 96.1465 2891.23 93.4108 2895.91 94.7287C2898.03 95.3278 2899.66 96.466 2900.75 97.9336L2901.13 96.6557L2904.78 97.684L2904.77 97.694ZM2897.83 107.708L2899.58 101.837C2898.85 99.7607 2897.3 98.6525 2895.46 98.1333C2892.42 97.2747 2889.48 99.0219 2888.61 101.927C2887.75 104.823 2889.26 107.838 2892.31 108.697C2894.16 109.216 2896.07 109.086 2897.82 107.708H2897.83Z" fill="#808080"/>
<path d="M2916.16 100.919L2911.33 117.143L2907.69 116.115L2912.51 99.8905L2916.16 100.919ZM2913.76 93.7603C2914.14 92.4823 2915.44 91.8433 2916.75 92.2127C2918.02 92.5721 2918.81 93.8102 2918.43 95.0881C2918.05 96.3661 2916.71 96.9951 2915.44 96.6357C2914.13 96.2663 2913.38 95.0482 2913.76 93.7702V93.7603Z" fill="#808080"/>
<path d="M2930.04 95.857L2922.75 120.368L2919.07 119.33L2926.35 94.8186L2930.04 95.857Z" fill="#808080"/>
<path d="M2937.43 121.766C2939.59 122.375 2941.28 122.095 2941.66 120.817C2941.95 119.849 2941.33 118.93 2939.99 118.291L2936.49 116.634C2934.06 115.506 2932.05 113.599 2932.92 110.653C2933.86 107.508 2937.23 106.36 2941.36 107.528C2944.59 108.437 2947.99 110.554 2947.09 114.897L2943.69 113.938C2944.04 112.131 2942.64 110.993 2940.51 110.394C2938.38 109.795 2936.99 110.224 2936.66 111.372C2936.41 112.241 2936.8 113.239 2938.66 114.098L2941.63 115.456C2944.02 116.614 2946.18 118.381 2945.25 121.526C2944.23 124.941 2940.64 125.839 2936.45 124.671C2932.51 123.563 2929.6 121.107 2930.44 116.704L2933.83 117.692C2933.62 119.809 2934.9 121.067 2937.42 121.766H2937.43Z" fill="#808080"/>
<path d="M2963.62 120.697C2964.31 118.341 2967.01 116.923 2969.39 117.582C2971.83 118.261 2973.35 120.837 2972.66 123.193C2971.98 125.55 2969.3 126.977 2966.86 126.298C2964.48 125.64 2962.93 123.054 2963.61 120.697H2963.62Z" fill="#808080"/>
<path d="M3027.02 123.483L3012.3 145.069L3008.53 144.07L3007.28 125.49L2996.54 140.895L2992.77 139.897L2991.29 114.028L2995.32 115.096L2996.31 134.575L3007.53 118.321L3010.81 119.19L3012.05 138.739L3022.97 122.415L3027.03 123.493L3027.02 123.483Z" fill="#808080"/>
<path d="M3040.97 144.669L3027.81 141.335C3027.5 143.89 3028.61 146.177 3031.75 146.976C3033.39 147.395 3034.77 147.225 3035.72 146.347L3039.79 147.375C3037.93 150.061 3034.51 151.049 3030.87 150.121C3025.58 148.783 3023.01 144.15 3024.31 139.288C3025.61 134.455 3030.14 131.59 3035.24 132.888C3040.8 134.296 3043.17 139.318 3040.98 144.669H3040.97ZM3028.53 138.839L3037.96 141.225C3038.46 138.489 3037.06 136.612 3034.45 135.953C3031.67 135.244 3029.58 136.652 3028.54 138.839H3028.53Z" fill="#808080"/>
<path d="M3075.4 152.976L3062.18 149.841C3061.92 152.407 3063.06 154.673 3066.22 155.422C3067.87 155.812 3069.24 155.622 3070.18 154.733L3074.27 155.702C3072.45 158.417 3069.04 159.456 3065.39 158.597C3060.08 157.339 3057.43 152.756 3058.65 147.864C3059.86 143.012 3064.34 140.077 3069.47 141.285C3075.07 142.613 3077.5 147.585 3075.4 152.976ZM3062.88 147.345L3072.34 149.581C3072.79 146.836 3071.36 144.989 3068.75 144.37C3065.95 143.711 3063.88 145.139 3062.88 147.345Z" fill="#808080"/>
<path d="M3110.02 158.318L3107.83 167.743L3104.12 166.924L3106.31 157.499C3106.99 154.593 3105.7 152.976 3103.29 152.447C3101.63 152.077 3099.92 152.327 3098.27 153.695C3098.26 154.244 3098.16 154.853 3098.02 155.442L3095.78 165.087L3092.07 164.268L3094.31 154.623C3094.99 151.718 3093.64 150.31 3091.45 149.831C3089.69 149.442 3087.95 149.791 3086.34 151.169L3083.73 162.421L3079.99 161.592L3083.82 145.119L3087.56 145.947L3087.23 147.345C3088.75 146.496 3090.43 146.137 3092.65 146.626C3095.06 147.155 3096.82 148.393 3097.71 150.25C3099.73 149.042 3101.83 148.653 3104.31 149.202C3108.73 150.18 3111.15 153.435 3110.01 158.308L3110.02 158.318Z" fill="#808080"/>
<path d="M3134.57 164.518C3133.54 169.37 3128.86 172.465 3124.08 171.497C3121.91 171.057 3120.21 170.049 3119.03 168.681L3118.76 169.979L3115 169.22L3120.31 144.23L3124.07 144.989L3122 154.703C3123.63 153.934 3125.61 153.675 3127.78 154.104C3132.54 155.063 3135.59 159.715 3134.57 164.508V164.518ZM3130.82 163.759C3131.45 160.833 3129.69 157.948 3126.54 157.319C3124.67 156.94 3122.8 157.189 3121.18 158.657L3119.88 164.747C3120.79 166.724 3122.38 167.713 3124.26 168.092C3127.4 168.731 3130.2 166.724 3130.82 163.769V163.759Z" fill="#808080"/>
<path d="M3152.55 158.986L3151.86 162.441C3149.13 162.032 3146.86 162.631 3144.96 164.288L3142.88 174.731L3139.11 174.023L3142.41 157.439L3146.17 158.148L3145.72 160.404C3147.6 159.036 3149.93 158.487 3152.54 158.986H3152.55Z" fill="#808080"/>
<path d="M3174.54 163.26L3171.46 179.883L3167.73 179.224L3167.97 177.916C3166.31 178.755 3164.35 179.074 3162.17 178.685C3157.38 177.846 3154.26 173.274 3155.15 168.431C3156.04 163.589 3160.61 160.364 3165.4 161.213C3167.58 161.592 3169.31 162.561 3170.56 163.909L3170.81 162.601L3174.55 163.26H3174.54ZM3168.71 173.933L3169.82 167.922C3168.87 165.925 3167.21 164.977 3165.33 164.647C3162.21 164.098 3159.47 166.145 3158.93 169.11C3158.37 172.086 3160.22 174.921 3163.33 175.47C3165.22 175.8 3167.11 175.47 3168.71 173.933Z" fill="#808080"/>
<path d="M3186.41 179.644C3188.63 179.993 3190.28 179.524 3190.49 178.216C3190.66 177.217 3189.94 176.379 3188.53 175.9L3184.85 174.661C3182.3 173.823 3180.08 172.155 3180.58 169.14C3181.12 165.915 3184.33 164.378 3188.59 165.057C3191.9 165.586 3195.54 167.293 3195.18 171.716L3191.68 171.157C3191.81 169.32 3190.28 168.352 3188.1 168.002C3185.92 167.653 3184.58 168.242 3184.39 169.42C3184.25 170.308 3184.76 171.257 3186.71 171.896L3189.83 172.904C3192.34 173.773 3194.7 175.281 3194.16 178.505C3193.58 182.02 3190.11 183.328 3185.81 182.649C3181.77 182.01 3178.57 179.893 3178.87 175.43L3182.36 176.019C3182.42 178.136 3183.85 179.244 3186.43 179.654L3186.41 179.644Z" fill="#808080"/>
<path d="M3217.28 179.474L3203.82 177.547C3203.81 180.123 3205.16 182.279 3208.37 182.739C3210.05 182.978 3211.4 182.659 3212.25 181.7L3216.41 182.289C3214.86 185.155 3211.56 186.503 3207.84 185.973C3202.45 185.205 3199.37 180.872 3200.12 175.9C3200.87 170.957 3205.05 167.633 3210.27 168.381C3215.97 169.19 3218.87 173.933 3217.29 179.484L3217.28 179.474ZM3204.28 175.001L3213.91 176.379C3214.1 173.613 3212.49 171.896 3209.83 171.507C3206.98 171.097 3205.07 172.715 3204.28 175.001Z" fill="#808080"/>
<path d="M3262.54 175.27L3254.35 191.355L3251.03 190.976L3248.37 178.885L3242.92 190.067L3239.59 189.688L3235.4 172.205L3239.5 172.665L3241.91 184.296L3247.34 173.543L3250.59 173.913L3253.37 185.554L3258.43 174.801L3262.54 175.261V175.27Z" fill="#808080"/>
<path d="M3284.36 184.775L3283.46 194.15L3279.64 193.801L3280.52 184.636C3280.82 181.56 3279.28 179.763 3276.5 179.504C3274.85 179.354 3272.96 180.083 3271.45 181.61L3270.36 192.952L3266.54 192.603L3268.97 167.193L3272.79 167.543L3271.83 177.637C3273.46 176.519 3275.39 176.009 3277.59 176.209C3282.07 176.618 3284.83 179.903 3284.36 184.765V184.775Z" fill="#808080"/>
<path d="M3296.35 178.206L3294.98 195.049L3291.2 194.759L3292.56 177.916L3296.35 178.206ZM3292.52 171.666C3292.62 170.338 3293.77 169.46 3295.13 169.56C3296.45 169.659 3297.47 170.718 3297.37 172.036C3297.27 173.364 3296.08 174.242 3294.76 174.142C3293.4 174.042 3292.41 172.984 3292.52 171.666Z" fill="#808080"/>
<path d="M3315.5 196.187C3313.95 196.627 3312.69 196.686 3311.52 196.617C3307.1 196.327 3304.92 193.601 3305.22 189.258L3305.71 182.02L3301.62 181.76L3301.84 178.645L3305.92 178.905L3306.34 172.705L3310.17 172.954L3309.75 179.154L3316.16 179.564L3315.94 182.679L3309.54 182.269L3309.05 189.518C3308.88 191.954 3310.06 193.072 3312.19 193.212C3313.22 193.282 3314.27 193.062 3315.18 192.753L3315.5 196.197V196.187Z" fill="#808080"/>
<path d="M3337.82 190.247L3324.23 189.578C3324.46 192.144 3326.02 194.16 3329.25 194.32C3330.94 194.4 3332.27 193.961 3333.01 192.922L3337.21 193.132C3335.95 196.127 3332.8 197.775 3329.05 197.585C3323.6 197.315 3320.12 193.292 3320.37 188.27C3320.63 183.278 3324.48 179.584 3329.75 179.843C3335.49 180.123 3338.84 184.576 3337.81 190.247H3337.82ZM3324.44 187.002L3334.16 187.481C3334.08 184.705 3332.32 183.148 3329.63 183.008C3326.77 182.868 3325 184.656 3324.44 187.002Z" fill="#808080"/>
<path d="M3363.52 195.758C3365.78 195.808 3367.34 195.129 3367.37 193.791C3367.39 192.783 3366.56 192.044 3365.09 191.764L3361.27 191.035C3358.63 190.546 3356.19 189.198 3356.26 186.143C3356.35 182.868 3359.29 180.922 3363.62 181.021C3366.98 181.101 3370.82 182.299 3371.08 186.722L3367.54 186.642C3367.4 184.805 3365.76 184.047 3363.55 183.997C3361.33 183.947 3360.09 184.705 3360.07 185.894C3360.05 186.792 3360.7 187.671 3362.72 188.04L3365.95 188.619C3368.55 189.148 3371.11 190.317 3371.03 193.591C3370.95 197.146 3367.7 198.913 3363.35 198.813C3359.25 198.723 3355.79 197.066 3355.45 192.593L3359 192.713C3359.36 194.809 3360.92 195.708 3363.54 195.758H3363.52Z" fill="#808080"/>
<path d="M3395.63 190.297C3395.6 195.219 3391.64 199.113 3386.78 199.093C3384.56 199.083 3382.69 198.424 3381.25 197.335L3381.2 207L3377.37 206.98L3377.52 181.75L3381.35 181.77V183.098C3382.78 182.03 3384.67 181.391 3386.88 181.401C3391.74 181.431 3395.67 185.364 3395.63 190.287V190.297ZM3391.79 190.277C3391.81 187.261 3389.5 184.656 3386.29 184.636C3384.38 184.636 3382.61 185.334 3381.31 187.122L3381.28 193.302C3382.56 195.109 3384.32 195.838 3386.23 195.848C3389.44 195.868 3391.77 193.292 3391.79 190.277Z" fill="#808080"/>
<path d="M3419.51 181.57L3419.75 198.464L3415.96 198.513L3415.93 197.186C3414.48 198.324 3412.61 198.993 3410.39 199.023C3405.53 199.093 3401.56 195.189 3401.49 190.267C3401.42 185.344 3405.27 181.341 3410.14 181.271C3412.35 181.241 3414.23 181.86 3415.73 182.958L3415.71 181.63L3419.51 181.58V181.57ZM3415.88 193.122L3415.79 187.012C3414.48 185.235 3412.66 184.606 3410.74 184.636C3407.58 184.676 3405.28 187.192 3405.32 190.207C3405.36 193.222 3407.72 195.678 3410.9 195.628C3412.81 195.598 3414.61 194.929 3415.87 193.112L3415.88 193.122Z" fill="#808080"/>
<path d="M3439.79 191.774L3443.69 191.674C3443.17 195.568 3439.78 198.354 3435.43 198.464C3430.23 198.593 3426.19 194.849 3426.04 189.827C3425.91 184.835 3429.75 180.852 3434.94 180.722C3439.3 180.612 3442.83 183.218 3443.56 187.082L3439.66 187.182C3439.12 185.295 3437.36 184.037 3435.04 184.096C3431.83 184.176 3429.79 186.672 3429.87 189.728C3429.96 192.783 3432.13 195.169 3435.33 195.089C3437.66 195.029 3439.35 193.691 3439.78 191.774H3439.79Z" fill="#808080"/>
<path d="M3467.09 189.358L3453.5 190.017C3454 192.543 3455.76 194.41 3458.99 194.25C3460.68 194.17 3461.95 193.601 3462.6 192.493L3466.8 192.293C3465.84 195.398 3462.88 197.335 3459.13 197.525C3453.68 197.785 3449.79 194.13 3449.54 189.098C3449.28 184.106 3452.73 180.053 3458 179.803C3463.74 179.524 3467.53 183.627 3467.08 189.368L3467.09 189.358ZM3453.45 187.431L3463.17 186.962C3462.81 184.206 3460.9 182.828 3458.2 182.958C3455.34 183.098 3453.77 185.045 3453.45 187.431Z" fill="#808080"/>
<path d="M3488.41 169.769L3490.28 195.219L3486.46 195.488L3484.59 170.039L3488.41 169.769Z" fill="#808080"/>
<path d="M3495.97 171.616C3495.85 170.288 3496.85 169.24 3498.2 169.13C3499.52 169.03 3500.71 169.909 3500.81 171.237C3500.91 172.565 3499.9 173.613 3498.58 173.723C3497.22 173.833 3496.07 172.944 3495.97 171.616ZM3500.82 177.467L3502.21 194.31L3498.42 194.61L3497.03 177.767L3500.82 177.467Z" fill="#808080"/>
<path d="M3516.8 185.804L3513.85 189.328L3514.24 193.302L3510.42 193.651L3507.95 168.242L3511.77 167.892L3513.37 184.426L3520.71 175.73L3525.56 175.28L3519.16 182.948L3528.29 192.004L3523.33 192.463L3516.8 185.804Z" fill="#808080"/>
<path d="M3548.15 182.489L3534.63 183.957C3535.29 186.453 3537.16 188.2 3540.39 187.85C3542.08 187.671 3543.3 187.032 3543.87 185.884L3548.05 185.434C3547.3 188.589 3544.46 190.706 3540.71 191.115C3535.29 191.704 3531.19 188.28 3530.62 183.278C3530.05 178.316 3533.24 174.062 3538.48 173.493C3544.2 172.874 3548.24 176.738 3548.15 182.499V182.489ZM3534.41 181.371L3544.08 180.322C3543.55 177.597 3541.55 176.329 3538.87 176.618C3536.01 176.928 3534.58 178.965 3534.41 181.371Z" fill="#808080"/>
<path d="M3584.11 176.748C3584.84 181.87 3581.56 186.053 3576.23 186.772C3570.9 187.491 3566.59 184.336 3565.85 179.214C3565.11 174.092 3568.4 169.909 3573.73 169.19C3579.05 168.471 3583.37 171.626 3584.11 176.748ZM3580.32 177.257C3579.87 174.092 3577.32 172.116 3574.22 172.535C3571.11 172.954 3569.21 175.53 3569.66 178.705C3570.11 181.84 3572.66 183.847 3575.76 183.428C3578.87 183.008 3580.76 180.392 3580.32 177.257Z" fill="#808080"/>
<path d="M3605.63 164.967L3608.31 181.66L3604.56 182.229L3604.3 180.592C3603.02 182.13 3601.28 183.168 3599.05 183.507C3594.61 184.186 3591.13 181.551 3590.36 176.758L3588.87 167.523L3592.62 166.954L3594.08 175.969C3594.57 179.025 3596.55 180.462 3599.29 180.053C3600.97 179.793 3602.57 178.605 3603.67 176.688L3601.88 165.536L3605.63 164.967Z" fill="#808080"/>
<path d="M3622.99 161.722L3623.6 165.197C3620.9 165.756 3619.01 167.093 3617.82 169.3L3619.66 179.783L3615.88 180.412L3612.95 163.769L3616.73 163.14L3617.13 165.406C3618.4 163.479 3620.38 162.161 3622.99 161.722Z" fill="#808080"/>
<path d="M3659.61 163.899C3660.58 168.771 3657.49 173.384 3652.71 174.292C3650.54 174.701 3648.56 174.422 3646.94 173.603L3647.2 174.911L3643.44 175.63L3638.42 150.59L3642.17 149.871L3644.13 159.605C3645.33 158.278 3647.05 157.289 3649.22 156.88C3653.99 155.971 3658.64 159.106 3659.61 163.909V163.899ZM3655.85 164.617C3655.26 161.692 3652.49 159.695 3649.34 160.294C3647.46 160.654 3645.84 161.582 3644.93 163.549L3646.16 169.649C3647.77 171.137 3649.63 171.437 3651.51 171.077C3654.66 170.478 3656.44 167.573 3655.85 164.608V164.617Z" fill="#808080"/>
<path d="M3682.7 160.304L3669.4 163.08C3670.31 165.496 3672.35 167.064 3675.51 166.405C3677.17 166.055 3678.33 165.306 3678.78 164.108L3682.89 163.25C3682.46 166.465 3679.85 168.841 3676.18 169.61C3670.84 170.718 3666.41 167.713 3665.33 162.79C3664.26 157.908 3667 153.365 3672.15 152.287C3677.77 151.119 3682.19 154.573 3682.69 160.304H3682.7ZM3668.92 160.534L3678.43 158.547C3677.62 155.881 3675.5 154.823 3672.87 155.372C3670.05 155.961 3668.83 158.128 3668.91 160.534H3668.92Z" fill="#808080"/>
<path d="M3696.98 161.972C3699.17 161.482 3700.51 160.444 3700.21 159.146C3699.97 158.168 3698.99 157.649 3697.49 157.728L3693.61 157.938C3690.93 158.098 3688.22 157.379 3687.52 154.404C3686.77 151.219 3689.13 148.623 3693.34 147.674C3696.61 146.946 3700.65 147.185 3702.02 151.409L3698.57 152.177C3697.96 150.43 3696.18 150.091 3694.03 150.58C3691.88 151.069 3690.88 152.097 3691.14 153.256C3691.35 154.134 3692.2 154.823 3694.25 154.703L3697.52 154.484C3700.19 154.364 3702.95 154.893 3703.71 158.078C3704.53 161.542 3701.82 164.028 3697.58 164.987C3693.6 165.885 3689.82 165.107 3688.37 160.863L3691.83 160.125C3692.7 162.072 3694.45 162.561 3697 161.992L3696.98 161.972Z" fill="#808080"/>
<path d="M3723.37 158.258C3722.03 159.136 3720.85 159.566 3719.71 159.835C3715.41 160.863 3712.49 158.887 3711.43 154.663L3709.66 147.615L3705.69 148.563L3704.93 145.528L3708.9 144.579L3707.39 138.539L3711.11 137.65L3712.63 143.691L3718.87 142.203L3719.63 145.238L3713.4 146.726L3715.17 153.775C3715.76 156.151 3717.24 156.87 3719.32 156.381C3720.32 156.141 3721.25 155.622 3722.02 155.073L3723.39 158.258H3723.37Z" fill="#808080"/>
<path d="M3742.84 136.143L3749.47 134.416L3750.3 137.441L3743.67 139.168L3747.31 152.467L3743.64 153.425L3740.01 140.126L3735.26 141.355L3734.43 138.329L3739.18 137.101L3738.58 134.915C3737.47 130.851 3739.67 127.596 3743.63 126.568C3744.74 126.279 3745.89 126.169 3747.3 126.169L3747.6 129.364C3746.63 129.314 3745.59 129.404 3744.91 129.583C3742.74 130.152 3741.68 131.84 3742.25 133.956L3742.84 136.143Z" fill="#808080"/>
<path d="M3763.92 130.122L3764.9 133.517C3762.26 134.346 3760.51 135.863 3759.57 138.18L3762.51 148.423L3758.81 149.432L3754.15 133.168L3757.85 132.159L3758.48 134.376C3759.55 132.329 3761.37 130.831 3763.93 130.132L3763.92 130.122Z" fill="#808080"/>
<path d="M3767.89 122.924C3767.51 121.646 3768.25 120.428 3769.57 120.058C3770.85 119.699 3772.18 120.328 3772.56 121.606C3772.93 122.884 3772.15 124.112 3770.88 124.471C3769.57 124.841 3768.26 124.202 3767.89 122.924ZM3773.84 127.716L3778.65 143.94L3775 144.969L3770.19 128.745L3773.84 127.716Z" fill="#808080"/>
<path d="M3800.08 130.043L3787.06 133.876C3788.17 136.213 3790.34 137.6 3793.44 136.692C3795.06 136.213 3796.14 135.364 3796.5 134.136L3800.53 132.948C3800.37 136.183 3797.98 138.769 3794.38 139.827C3789.16 141.364 3784.49 138.729 3782.99 133.906C3781.51 129.124 3783.85 124.382 3788.89 122.894C3794.4 121.266 3799.09 124.352 3800.08 130.033V130.043ZM3786.36 131.39L3795.68 128.645C3794.65 126.059 3792.45 125.17 3789.88 125.929C3787.12 126.738 3786.09 128.994 3786.37 131.39H3786.36Z" fill="#808080"/>
<path d="M3821.79 121.137L3824.73 130.102L3821.07 131.241L3818.21 122.475C3817.24 119.529 3815.11 118.461 3812.44 119.29C3810.86 119.779 3809.42 121.177 3808.64 123.153L3812.19 134.006L3808.54 135.144L3803.26 119.06L3806.92 117.922L3807.39 119.36C3808.43 117.712 3810.01 116.504 3812.12 115.845C3816.4 114.507 3820.26 116.474 3821.79 121.137Z" fill="#808080"/>
<path d="M3839.64 98.343L3848 122.534L3844.4 123.713L3843.95 122.415C3842.93 123.962 3841.36 125.16 3839.26 125.849C3834.65 127.367 3829.66 124.831 3828.03 120.128C3826.43 115.496 3828.84 110.534 3833.45 109.016C3835.55 108.327 3837.53 108.357 3839.29 108.956L3836.04 99.5211L3839.63 98.343H3839.64ZM3842.62 118.571L3840.64 112.81C3838.82 111.512 3836.9 111.452 3835.08 112.051C3832.08 113.04 3830.69 116.115 3831.66 118.94C3832.65 121.806 3835.68 123.463 3838.68 122.475C3840.49 121.875 3842 120.707 3842.62 118.561V118.571Z" fill="#808080"/>
</g>
<g clip-path="url(#clip1_2568_2631)">
<path d="M35.0896 69.9986L35.1818 95.9173L31.4742 97.1354L19.8288 82.3689L19.6957 100.999L15.988 102.217L0 81.5302L3.95347 80.2323L15.9061 95.8774L15.9368 76.2886L19.1528 75.2302L31.3513 90.7955L31.1054 71.2965L35.0896 69.9886V69.9986Z" fill="#808080"/>
<path d="M58.8517 80.7015L45.8748 84.6952C47.0117 87.0215 49.1933 88.3893 52.2967 87.4308C53.9149 86.9316 54.9904 86.073 55.3284 84.8349L59.333 83.5969C59.2204 86.8318 56.8544 89.4476 53.2697 90.5558C48.0667 92.1633 43.3553 89.5774 41.8087 84.775C40.2621 80.0126 42.5461 75.2402 47.575 73.6827C53.0648 71.9954 57.7967 75.0206 58.8619 80.6915L58.8517 80.7015ZM45.1477 82.2091L54.427 79.3537C53.3619 76.7778 51.1496 75.9191 48.5788 76.7079C45.8339 77.5565 44.8301 79.8229 45.1374 82.2191L45.1477 82.2091Z" fill="#808080"/>
<path d="M88.0521 53.2652L95.3547 77.7762L91.7085 78.8045L91.3193 77.4966C90.2337 79.0042 88.6154 80.1324 86.485 80.7415C81.8146 82.0693 76.9291 79.3337 75.5054 74.5613C74.1023 69.8688 76.7243 65.0065 81.4049 63.6786C83.5251 63.0796 85.5223 63.1894 87.2532 63.8583L84.4059 54.2936L88.0521 53.2652ZM90.1517 73.5928L88.4106 67.7621C86.6592 66.3843 84.7336 66.2545 82.9003 66.7737C79.8584 67.6323 78.3323 70.6475 79.1824 73.513C80.0427 76.4084 82.9925 78.1955 86.0446 77.3369C87.8882 76.8177 89.4348 75.6995 90.1517 73.5928Z" fill="#808080"/>
<path d="M116.945 63.2293C118.338 68.2214 115.644 72.7741 110.452 74.1619C105.259 75.5397 100.558 72.9539 99.1647 67.9618C97.7717 62.9697 100.465 58.417 105.658 57.0292C110.851 55.6514 115.552 58.2373 116.945 63.2293ZM113.248 64.2078C112.387 61.1227 109.591 59.4753 106.57 60.284C103.548 61.0828 102.002 63.8883 102.862 66.9734C103.712 70.0285 106.519 71.7058 109.54 70.8971C112.561 70.0884 114.098 67.2629 113.248 64.2078Z" fill="#808080"/>
<path d="M139.201 56.6298L141.598 65.7553L137.88 66.6838L135.534 57.768C134.746 54.7728 132.687 53.5847 129.973 54.2536C128.365 54.653 126.839 55.9609 125.937 57.8978L128.836 68.9402L125.118 69.8688L120.816 53.5048L124.534 52.5763L124.924 54.044C126.071 52.4565 127.72 51.3383 129.86 50.8091C134.223 49.7208 137.952 51.9074 139.191 56.6398L139.201 56.6298Z" fill="#808080"/>
<path d="M142.612 43.4308C141.557 43.311 140.922 42.7619 140.717 41.9232C140.41 40.7052 141.209 39.5071 142.469 39.2175C143.759 38.908 145.029 39.6069 145.336 40.825C145.47 41.3441 145.49 41.6037 145.111 43.1013L144.118 47.3346L141.864 47.8738L142.612 43.4408V43.4308Z" fill="#808080"/>
<path d="M168.862 59.1459C167.521 60.0045 166.332 60.4238 165.185 60.6834C160.873 61.6718 157.975 59.675 156.961 55.4417L155.261 48.373L151.277 49.2816L150.549 46.2364L154.534 45.3278L153.079 39.2775L156.818 38.4288L158.272 44.4792L164.52 43.0515L165.247 46.0966L158.999 47.5243L160.699 54.5931C161.273 56.9693 162.737 57.7081 164.817 57.2289C165.82 56.9993 166.763 56.4901 167.541 55.9409L168.883 59.1459H168.862Z" fill="#808080"/>
<path d="M198.954 35.7431L202.529 52.2768L198.811 53.0356L198.462 51.4181C197.264 53.0256 195.584 54.1438 193.382 54.5931C188.978 55.5016 185.363 53.0456 184.339 48.2931L182.362 39.1477L186.08 38.3889L188.005 47.3247C188.661 50.3499 190.719 51.6877 193.423 51.1386C195.083 50.7991 196.619 49.5312 197.623 47.5543L195.236 36.5119L198.954 35.7531V35.7431Z" fill="#808080"/>
<path d="M216.038 46.9952C218.25 46.5759 219.623 45.5874 219.367 44.2795C219.172 43.2911 218.199 42.742 216.704 42.7719L212.812 42.8518C210.118 42.9217 207.445 42.113 206.84 39.1078C206.205 35.8929 208.664 33.3769 212.904 32.5782C216.202 31.9591 220.217 32.3286 221.446 36.6017L217.974 37.2607C217.431 35.4935 215.669 35.0941 213.488 35.5135C211.306 35.9328 210.272 36.9312 210.507 38.0894C210.681 38.968 211.501 39.6968 213.559 39.6369L216.847 39.5271C219.51 39.4971 222.265 40.1162 222.9 43.321C223.597 46.8155 220.811 49.2117 216.54 50.0204C212.525 50.7792 208.776 49.8806 207.465 45.5874L210.948 44.9684C211.757 46.9353 213.477 47.4944 216.048 47.0052L216.038 46.9952Z" fill="#808080"/>
<path d="M244.9 37.0111L231.514 39.3474C232.333 41.7935 234.32 43.4209 237.516 42.8618C239.185 42.5722 240.363 41.8534 240.855 40.6753L244.992 39.9564C244.46 43.1513 241.766 45.4477 238.069 46.0966C232.702 47.0351 228.369 43.8802 227.458 38.9281C226.556 34.0159 229.445 29.563 234.638 28.6544C240.301 27.666 244.593 31.2603 244.9 37.0111ZM231.114 36.7914L240.691 35.1141C239.974 32.4284 237.895 31.2902 235.242 31.7595C232.415 32.2587 231.114 34.3753 231.114 36.7914Z" fill="#808080"/>
<path d="M276.149 33.3169L280.011 32.7379C280 36.6716 276.989 39.8466 272.687 40.4955C267.546 41.2643 263.05 38.0494 262.261 33.0773C261.483 28.1352 264.781 23.7122 269.912 22.9435C274.214 22.2945 278.065 24.4511 279.283 28.1951L275.422 28.7742C274.654 26.9671 272.739 25.9387 270.434 26.2881C267.259 26.7674 265.569 29.493 266.04 32.5082C266.511 35.5234 268.98 37.6301 272.145 37.1608C274.439 36.8214 275.955 35.2838 276.129 33.3269L276.149 33.3169Z" fill="#808080"/>
<path d="M303.608 27.2167C304.325 32.3385 301.048 36.5218 295.712 37.2307C290.375 37.9396 286.063 34.7846 285.346 29.6528C284.63 24.5209 287.907 20.3476 293.243 19.6387C298.579 18.9298 302.891 22.0848 303.608 27.2167ZM299.808 27.7258C299.368 24.5609 296.818 22.574 293.714 22.9934C290.611 23.4127 288.706 25.9886 289.146 29.1536C289.587 32.2886 292.137 34.3054 295.24 33.886C298.344 33.4667 300.249 30.8609 299.808 27.7258Z" fill="#808080"/>
<path d="M338.002 21.975L339.149 31.5797L335.38 32.009L334.233 22.4043C333.884 19.4391 332.112 18.3408 329.665 18.6104C327.975 18.8001 326.438 19.5888 325.353 21.4159C325.527 21.9351 325.639 22.5441 325.711 23.1531L326.879 32.9775L323.11 33.4068L321.942 23.5825C321.594 20.6172 319.853 19.7286 317.62 19.9782C315.827 20.1779 314.301 21.0764 313.257 22.8936L314.619 34.3553L310.809 34.7846L308.812 18.0013L312.622 17.572L312.796 18.9998C313.943 17.7118 315.397 16.8232 317.671 16.5636C320.129 16.2841 322.198 16.8831 323.673 18.3408C325.168 16.5437 327.012 15.5053 329.542 15.2158C334.048 14.7066 337.438 17.0029 338.032 21.965L338.002 21.975Z" fill="#808080"/>
<path d="M343.635 7.96732C343.502 6.63943 344.464 5.57113 345.827 5.44134C347.148 5.31155 348.346 6.17018 348.479 7.49807C348.613 8.82595 347.609 9.89425 346.288 10.024C344.925 10.1538 343.768 9.2952 343.635 7.96732ZM348.592 13.7381L350.292 30.5514L346.513 30.9108L344.813 14.0976L348.592 13.7381Z" fill="#808080"/>
<path d="M370.182 22.624L374.074 22.2945C373.788 26.2183 370.571 29.1936 366.239 29.553C361.057 29.9923 356.786 26.4879 356.345 21.4758C355.905 16.4938 359.489 12.3004 364.672 11.8611C369.004 11.4917 372.702 13.8879 373.665 17.7118L369.773 18.0413C369.127 16.1843 367.284 15.0361 364.969 15.2358C361.773 15.5053 359.889 18.1212 360.165 21.1563C360.442 24.1915 362.746 26.4579 365.942 26.1883C368.257 25.9986 369.865 24.5609 370.182 22.624Z" fill="#808080"/>
<path d="M399.69 24.0816C401.933 23.9419 403.439 23.1331 403.347 21.8053C403.285 20.7969 402.394 20.1379 400.899 19.9682L397.027 19.5489C394.354 19.2793 391.804 18.1311 391.609 15.086C391.404 11.8212 394.18 9.63464 398.492 9.37505C401.841 9.17537 405.774 10.054 406.43 14.447L402.896 14.6566C402.599 12.8395 400.889 12.2205 398.686 12.3503C396.474 12.4801 395.317 13.3487 395.388 14.5268C395.45 15.4254 396.167 16.2441 398.205 16.4438L401.472 16.7533C404.115 17.0628 406.768 18.0213 406.972 21.2861C407.198 24.8404 404.115 26.8572 399.772 27.1268C395.685 27.3764 392.09 26.0086 391.363 21.5856L394.897 21.4059C395.429 23.4626 397.068 24.2314 399.68 24.0717L399.69 24.0816Z" fill="#808080"/>
<path d="M429.833 8.27681L430.621 25.1499L426.832 25.3197L426.77 23.9918C425.346 25.1699 423.503 25.8988 421.291 25.9986C416.426 26.2182 412.339 22.4443 412.103 17.5221C411.868 12.5999 415.596 8.47649 420.451 8.25684C422.663 8.157 424.568 8.71611 426.094 9.76444L426.033 8.43656L429.822 8.26683L429.833 8.27681ZM426.576 19.9382L426.289 13.838C424.916 12.1007 423.083 11.5316 421.168 11.6215C418.003 11.7613 415.791 14.3471 415.934 17.3623C416.077 20.3775 418.515 22.7538 421.68 22.614C423.595 22.5241 425.367 21.8053 426.576 19.9482V19.9382Z" fill="#808080"/>
<path d="M454.639 15.0061L454.916 24.4211L451.085 24.5309L450.819 15.3356C450.727 12.2505 448.986 10.643 446.19 10.7229C444.53 10.7728 442.748 11.7213 441.437 13.4086L441.765 24.8005L437.934 24.9103L437.443 8.0272L441.273 7.91737L441.314 9.42497C442.789 8.12704 444.653 7.38822 446.855 7.32831C451.352 7.2085 454.496 10.1338 454.639 15.0261V15.0061Z" fill="#808080"/>
<path d="M468.589 21.6056C470.843 21.5756 472.379 20.8468 472.358 19.5089C472.348 18.5005 471.488 17.7917 470.013 17.562L466.172 16.963C463.509 16.5636 461.031 15.2956 460.99 12.2405C460.949 8.96571 463.837 6.91897 468.149 6.86905C471.508 6.82911 475.39 7.89741 475.81 12.3204L472.266 12.3603C472.061 10.5332 470.392 9.83433 468.18 9.85429C465.967 9.88425 464.759 10.683 464.779 11.8711C464.789 12.7697 465.465 13.6283 467.493 13.9278L470.74 14.3971C473.362 14.8364 475.953 15.9146 475.994 19.1894C476.035 22.7438 472.85 24.6208 468.497 24.6707C464.4 24.7206 460.887 23.1731 460.385 18.7302H463.929C464.359 20.8069 465.957 21.6455 468.569 21.6156L468.589 21.6056Z" fill="#808080"/>
<path d="M493.283 13.4786C493.314 11.0324 495.546 8.97572 498.015 8.99569C500.555 9.02564 502.716 11.1223 502.685 13.5684C502.665 16.0145 500.463 18.0712 497.923 18.0513C495.454 18.0313 493.262 15.9247 493.283 13.4786Z" fill="#808080"/>
<path d="M555.699 1.43771L546.297 25.6691L542.394 25.5194L536.925 7.68776L529.981 25.0401L526.079 24.8904L518.725 0L522.883 0.159746L528.311 18.9299L535.511 0.648967L538.902 0.77876L544.586 19.5589L551.5 1.26798L555.699 1.42773V1.43771Z" fill="#808080"/>
<path d="M573.95 19.7586L560.369 18.9399C560.574 21.5058 562.11 23.5425 565.347 23.7422C567.037 23.8421 568.358 23.4227 569.126 22.3844L573.325 22.634C572.025 25.6192 568.86 27.2267 565.101 26.997C559.652 26.6676 556.221 22.604 556.538 17.582C556.856 12.6 560.748 8.9358 566.012 9.25529C571.758 9.60474 575.056 14.0876 573.95 19.7486V19.7586ZM560.604 16.364L570.324 16.953C570.283 14.1775 568.532 12.59 565.848 12.4302C562.981 12.2605 561.199 14.0177 560.615 16.364H560.604Z" fill="#808080"/>
<path d="M610.084 21.5757C609.603 26.7275 605.445 30.0821 600.088 29.6129C594.732 29.1436 591.249 25.12 591.72 19.9582C592.191 14.7965 596.36 11.4518 601.717 11.921C607.073 12.3903 610.556 16.4139 610.084 21.5757ZM606.264 21.2362C606.561 18.0513 604.533 15.5652 601.409 15.2857C598.286 15.0061 595.838 17.1028 595.541 20.2877C595.254 23.4427 597.272 25.9587 600.395 26.2382C603.519 26.5078 605.977 24.3812 606.264 21.2362Z" fill="#808080"/>
<path d="M634.563 24.0817C634.01 29.0138 629.647 32.5282 624.813 32.0091C622.611 31.7794 620.818 30.9308 619.507 29.6728L619.364 30.9907L615.554 30.5813L618.391 5.21173L622.201 5.62108L621.095 15.4854C622.641 14.5668 624.587 14.1176 626.779 14.3572C631.613 14.8763 635.096 19.2194 634.553 24.0817H634.563ZM630.753 23.6823C631.081 20.717 629.053 18.0014 625.868 17.6719C623.963 17.4722 622.139 17.8915 620.654 19.499L619.958 25.6791C621.043 27.5661 622.733 28.3948 624.639 28.5945C627.824 28.934 630.415 26.6776 630.753 23.6823Z" fill="#808080"/>
<path d="M646.936 31.4799C649.168 31.7595 650.797 31.2303 650.971 29.9124C651.104 28.914 650.346 28.0953 648.923 27.666L645.205 26.5577C642.624 25.8089 640.34 24.2215 640.739 21.1863C641.159 17.9415 644.314 16.3041 648.595 16.8232C651.923 17.2326 655.621 18.8101 655.416 23.243L651.903 22.8137C651.954 20.9766 650.408 20.0581 648.206 19.7885C646.004 19.5189 644.703 20.1579 644.549 21.3261C644.436 22.2147 644.979 23.1532 646.956 23.7223L650.111 24.6208C652.651 25.4096 655.068 26.8273 654.648 30.0721C654.187 33.6065 650.766 35.0342 646.454 34.4951C642.388 33.9959 639.121 31.9991 639.254 27.5162L642.757 27.9855C642.89 30.1021 644.354 31.1504 646.956 31.4699L646.936 31.4799Z" fill="#808080"/>
<path d="M673.617 31.4699L677.488 32.009C676.3 35.7631 672.48 37.9596 668.178 37.3605C663.026 36.6417 659.687 32.2886 660.415 27.3065C661.142 22.3644 665.607 19.0597 670.759 19.7785C675.071 20.3776 678.103 23.5226 678.164 27.4563L674.293 26.9172C674.098 24.9603 672.572 23.4427 670.268 23.1232C667.093 22.6839 664.655 24.8105 664.215 27.8357C663.774 30.8609 665.495 33.5666 668.67 34.0158C670.974 34.3353 672.869 33.297 673.627 31.4699H673.617Z" fill="#808080"/>
<path d="M700.615 34.3852L687.188 32.2786C687.136 34.8545 688.458 37.031 691.664 37.5302C693.333 37.7898 694.695 37.4903 695.556 36.5418L699.704 37.1908C698.116 40.0363 694.798 41.3342 691.09 40.7551C685.703 39.9164 682.691 35.5434 683.511 30.5813C684.32 25.6492 688.56 22.3844 693.763 23.1931C699.437 24.0817 702.274 28.8541 700.615 34.3852ZM687.669 29.7426L697.276 31.2502C697.512 28.4846 695.924 26.7474 693.272 26.3281C690.434 25.8788 688.488 27.4763 687.669 29.7426Z" fill="#808080"/>
<path d="M712.926 41.2543C715.139 41.6337 716.798 41.1944 717.033 39.8765C717.208 38.8881 716.511 38.0394 715.098 37.5402L711.441 36.2523C708.901 35.3737 706.699 33.6864 707.252 30.6811C707.836 27.4563 711.062 25.9687 715.313 26.7075C718.621 27.2766 722.226 29.0238 721.806 33.4467L718.324 32.8477C718.467 31.0106 716.962 30.0222 714.78 29.6528C712.599 29.2834 711.267 29.8525 711.052 31.0206C710.888 31.9092 711.39 32.8677 713.326 33.5266L716.429 34.575C718.918 35.4735 721.263 37.0111 720.68 40.2359C720.045 43.7404 716.562 44.9984 712.271 44.2595C708.246 43.5706 705.071 41.4141 705.429 36.9512L708.911 37.5902C708.942 39.7068 710.345 40.835 712.926 41.2743V41.2543Z" fill="#808080"/>
<path d="M733.277 44.8985C735.489 45.3079 737.149 44.8885 737.405 43.5806C737.599 42.5922 736.903 41.7336 735.5 41.2144L731.853 39.8765C729.334 38.968 727.152 37.2407 727.746 34.2455C728.371 31.0306 731.628 29.5929 735.858 30.3816C739.156 31.0006 742.741 32.7978 742.249 37.2108L738.777 36.5618C738.951 34.7247 737.456 33.7163 735.284 33.317C733.113 32.9076 731.761 33.4667 731.536 34.6349C731.362 35.5135 731.843 36.4819 733.779 37.1708L736.872 38.2591C739.351 39.1976 741.676 40.7651 741.041 43.98C740.354 47.4744 736.852 48.6825 732.581 47.8937C728.566 47.1449 725.421 44.9484 725.851 40.4955L729.324 41.1744C729.324 43.2911 730.706 44.4293 733.277 44.9085V44.8985Z" fill="#808080"/>
<path d="M763.881 46.0766L750.556 43.4109C750.392 45.9868 751.61 48.2132 754.796 48.8422C756.455 49.1717 757.827 48.9321 758.729 48.0136L762.846 48.8422C761.136 51.6178 757.766 52.776 754.079 52.0371C748.732 50.9688 745.916 46.476 746.961 41.5439C747.995 36.6516 752.368 33.5666 757.53 34.5949C763.164 35.7231 765.786 40.6153 763.881 46.0667V46.0766ZM751.17 40.8849L760.705 42.7919C761.064 40.0363 759.558 38.2291 756.926 37.7C754.11 37.1309 752.102 38.6385 751.17 40.8749V40.8849Z" fill="#808080"/>
<path d="M791.34 33.3169L785.697 58.2373L781.989 57.4385L782.286 56.1007C780.596 56.9094 778.609 57.149 776.448 56.6897C771.696 55.6614 768.756 50.9788 769.852 46.1365C770.938 41.3641 775.629 38.319 780.381 39.3473C782.542 39.8166 784.232 40.835 785.43 42.2328L787.633 32.5082L791.34 33.307V33.3169ZM783.187 52.137L784.529 46.2064C783.669 44.1797 782.051 43.1713 780.176 42.7619C777.083 42.093 774.267 44.0299 773.601 46.9453C772.935 49.8906 774.645 52.8359 777.739 53.5048C779.613 53.9042 781.518 53.6546 783.187 52.137Z" fill="#808080"/>
<path d="M823.572 58.2872C822.322 63.3192 817.703 66.0349 812.48 64.8068C807.256 63.5788 804.409 59.0959 805.658 54.0739C806.908 49.0419 811.527 46.3263 816.751 47.5543C821.974 48.7824 824.822 53.2652 823.572 58.2972V58.2872ZM819.844 57.4086C820.612 54.3036 818.984 51.548 815.931 50.8291C812.889 50.1102 810.145 51.8275 809.376 54.9425C808.618 58.0176 810.237 60.8032 813.279 61.5221C816.321 62.2409 819.076 60.4837 819.834 57.4086H819.844Z" fill="#808080"/>
<path d="M847.907 55.5516L835.832 69.9986L832.575 69.1998L828.99 50.899L832.923 51.8674L835.422 64.9766L843.975 54.5931L847.907 55.5616V55.5516Z" fill="#808080"/>
<path d="M865.668 69.9686L852.506 66.604C852.199 69.1599 853.295 71.4562 856.439 72.255C858.078 72.6743 859.461 72.5046 860.413 71.6359L864.479 72.6743C862.615 75.36 859.184 76.3385 855.548 75.4099C850.274 74.0621 847.703 69.4295 849.014 64.5572C850.315 59.7249 854.852 56.8695 859.952 58.1774C865.514 59.6051 867.859 64.6271 865.657 69.9686H865.668ZM853.254 64.1179L862.667 66.5241C863.179 63.7884 861.775 61.9114 859.174 61.2425C856.388 60.5336 854.299 61.9314 853.254 64.1179Z" fill="#808080"/>
<path d="M884.339 64.6071L883.397 68.0117C880.693 67.4127 878.398 67.852 876.37 69.3695L873.523 79.6432L869.826 78.6647L874.342 62.3507L878.05 63.3291L877.436 65.5456C879.423 64.3176 881.778 63.9282 884.339 64.6071Z" fill="#808080"/>
<path d="M920.156 65.7154L913.099 90.2862L909.442 89.2878L909.821 87.9699C908.08 88.6888 906.093 88.8186 903.963 88.2395C899.272 86.9615 896.609 82.1292 897.981 77.3469C899.333 72.6443 904.188 69.8588 908.879 71.1367C911.009 71.7158 912.638 72.834 913.754 74.2917L916.509 64.707L920.166 65.7054L920.156 65.7154ZM910.938 84.0661L912.617 78.2155C911.87 76.1488 910.313 75.0505 908.469 74.5413C905.417 73.7126 902.498 75.4898 901.668 78.3552C900.829 81.2606 902.375 84.2958 905.427 85.1344C907.271 85.6337 909.196 85.4939 910.938 84.0661Z" fill="#808080"/>
<path d="M938.223 89.6473L925.133 86.0031C924.765 88.559 925.82 90.8654 928.933 91.734C930.562 92.1932 931.944 92.0535 932.928 91.2048L936.973 92.333C935.048 94.9788 931.596 95.8874 927.981 94.879C922.737 93.4213 920.268 88.7288 921.692 83.8965C923.095 79.0941 927.704 76.3385 932.774 77.7463C938.305 79.2838 940.538 84.3557 938.223 89.6573V89.6473ZM925.943 83.537L935.304 86.1429C935.867 83.4172 934.515 81.5103 931.924 80.7914C929.159 80.0226 927.038 81.3705 925.943 83.537Z" fill="#808080"/>
<path d="M954.518 101.598C952.91 101.708 951.671 101.508 950.534 101.189C946.283 99.9908 944.747 96.8658 945.986 92.6924L948.055 85.7136L944.122 84.6053L945.013 81.6001L948.946 82.7083L950.718 76.7379L954.405 77.7762L952.633 83.7467L958.799 85.4839L957.908 88.4891L951.742 86.7519L949.673 93.7308C948.977 96.0771 949.888 97.4149 951.937 97.994C952.93 98.2736 954.006 98.2736 954.958 98.1737L954.518 101.608V101.598Z" fill="#808080"/>
<path d="M980.769 91.694L975.945 107.918L972.299 106.89L972.677 105.612C970.947 106.281 968.949 106.391 966.829 105.792C962.159 104.474 959.527 99.6114 960.94 94.8789C962.343 90.1465 967.229 87.4108 971.909 88.7287C974.029 89.3278 975.658 90.466 976.754 91.9336L977.133 90.6557L980.779 91.684L980.769 91.694ZM973.835 101.708L975.576 95.8374C974.849 93.7607 973.302 92.6525 971.459 92.1333C968.417 91.2747 965.477 93.0219 964.607 95.9273C963.746 98.8227 965.262 101.838 968.314 102.697C970.158 103.216 972.073 103.086 973.825 101.708H973.835Z" fill="#808080"/>
<path d="M992.158 94.9189L987.334 111.143L983.688 110.115L988.512 93.8905L992.158 94.9189ZM989.761 87.7603C990.14 86.4823 991.441 85.8433 992.752 86.2127C994.022 86.5721 994.81 87.8102 994.432 89.0881C994.053 90.3661 992.711 90.9951 991.441 90.6357C990.13 90.2663 989.382 89.0482 989.761 87.7702V87.7603Z" fill="#808080"/>
<path d="M1006.04 89.857L998.754 114.368L995.067 113.33L1002.35 88.8186L1006.04 89.857Z" fill="#808080"/>
<path d="M1013.43 115.766C1015.59 116.375 1017.28 116.095 1017.66 114.817C1017.95 113.849 1017.33 112.93 1015.99 112.291L1012.49 110.634C1010.06 109.506 1008.05 107.599 1008.92 104.653C1009.86 101.508 1013.23 100.36 1017.36 101.528C1020.59 102.437 1023.99 104.554 1023.09 108.897L1019.69 107.938C1020.04 106.131 1018.64 104.993 1016.51 104.394C1014.38 103.795 1012.99 104.224 1012.66 105.372C1012.41 106.241 1012.8 107.239 1014.66 108.098L1017.63 109.456C1020.02 110.614 1022.18 112.381 1021.25 115.526C1020.23 118.941 1016.64 119.839 1012.45 118.671C1008.51 117.563 1005.6 115.107 1006.44 110.704L1009.83 111.692C1009.62 113.809 1010.9 115.067 1013.42 115.766H1013.43Z" fill="#808080"/>
<path d="M1039.62 114.697C1040.31 112.341 1043.01 110.923 1045.39 111.582C1047.83 112.261 1049.35 114.837 1048.66 117.193C1047.98 119.55 1045.3 120.977 1042.86 120.298C1040.48 119.64 1038.93 117.054 1039.61 114.697H1039.62Z" fill="#808080"/>
<path d="M1103.02 117.483L1088.3 139.069L1084.53 138.07L1083.28 119.49L1072.54 134.895L1068.77 133.897L1067.29 108.028L1071.32 109.096L1072.31 128.575L1083.53 112.321L1086.81 113.19L1088.04 132.739L1098.97 116.415L1103.03 117.493L1103.02 117.483Z" fill="#808080"/>
<path d="M1116.97 138.669L1103.81 135.335C1103.5 137.89 1104.61 140.177 1107.75 140.976C1109.39 141.395 1110.77 141.225 1111.73 140.347L1115.79 141.375C1113.93 144.061 1110.51 145.049 1106.87 144.121C1101.59 142.783 1099.01 138.15 1100.32 133.288C1101.61 128.455 1106.14 125.59 1111.24 126.888C1116.81 128.296 1119.17 133.318 1116.98 138.669H1116.97ZM1104.54 132.839L1113.96 135.225C1114.46 132.489 1113.06 130.612 1110.46 129.953C1107.67 129.244 1105.58 130.652 1104.55 132.839H1104.54Z" fill="#808080"/>
<path d="M1151.4 146.976L1138.18 143.841C1137.92 146.407 1139.06 148.673 1142.22 149.422C1143.87 149.812 1145.24 149.622 1146.18 148.733L1150.27 149.702C1148.45 152.417 1145.04 153.456 1141.39 152.597C1136.08 151.339 1133.43 146.756 1134.65 141.864C1135.86 137.012 1140.34 134.077 1145.47 135.285C1151.07 136.613 1153.5 141.585 1151.4 146.976ZM1138.88 141.345L1148.34 143.581C1148.79 140.836 1147.36 138.989 1144.75 138.37C1141.95 137.711 1139.88 139.139 1138.88 141.345Z" fill="#808080"/>
<path d="M1186.02 152.318L1183.83 161.743L1180.12 160.924L1182.31 151.499C1182.99 148.593 1181.7 146.976 1179.29 146.447C1177.63 146.077 1175.92 146.327 1174.27 147.695C1174.26 148.244 1174.16 148.853 1174.02 149.442L1171.77 159.087L1168.07 158.268L1170.31 148.623C1170.99 145.718 1169.64 144.31 1167.45 143.831C1165.69 143.442 1163.95 143.791 1162.34 145.169L1159.73 156.421L1155.99 155.592L1159.82 139.119L1163.56 139.947L1163.23 141.345C1164.75 140.496 1166.43 140.137 1168.65 140.626C1171.06 141.155 1172.82 142.393 1173.71 144.25C1175.73 143.042 1177.83 142.653 1180.31 143.202C1184.73 144.18 1187.15 147.435 1186.01 152.308L1186.02 152.318Z" fill="#808080"/>
<path d="M1210.57 158.518C1209.54 163.37 1204.86 166.465 1200.08 165.497C1197.91 165.057 1196.21 164.049 1195.03 162.681L1194.76 163.979L1191 163.22L1196.31 138.23L1200.07 138.989L1198 148.703C1199.63 147.934 1201.61 147.675 1203.78 148.104C1208.54 149.063 1211.59 153.715 1210.57 158.508V158.518ZM1206.82 157.759C1207.45 154.833 1205.69 151.948 1202.54 151.319C1200.67 150.94 1198.8 151.189 1197.18 152.657L1195.88 158.747C1196.79 160.724 1198.38 161.713 1200.26 162.092C1203.4 162.731 1206.2 160.724 1206.82 157.769V157.759Z" fill="#808080"/>
<path d="M1228.55 152.986L1227.86 156.441C1225.13 156.032 1222.86 156.631 1220.96 158.288L1218.88 168.731L1215.11 168.023L1218.41 151.439L1222.17 152.148L1221.72 154.404C1223.6 153.036 1225.93 152.487 1228.54 152.986H1228.55Z" fill="#808080"/>
<path d="M1250.54 157.26L1247.46 173.883L1243.73 173.224L1243.97 171.916C1242.31 172.755 1240.35 173.074 1238.17 172.685C1233.38 171.846 1230.26 167.274 1231.15 162.431C1232.04 157.589 1236.61 154.364 1241.4 155.213C1243.58 155.592 1245.31 156.561 1246.56 157.909L1246.81 156.601L1250.55 157.26H1250.54ZM1244.71 167.933L1245.82 161.922C1244.87 159.925 1243.21 158.977 1241.33 158.647C1238.21 158.098 1235.47 160.145 1234.93 163.11C1234.37 166.086 1236.22 168.921 1239.33 169.47C1241.22 169.8 1243.11 169.47 1244.71 167.933Z" fill="#808080"/>
<path d="M1262.41 173.644C1264.63 173.993 1266.28 173.524 1266.49 172.216C1266.66 171.217 1265.94 170.379 1264.53 169.9L1260.85 168.661C1258.3 167.823 1256.08 166.155 1256.58 163.14C1257.12 159.915 1260.33 158.378 1264.59 159.057C1267.9 159.586 1271.54 161.293 1271.17 165.716L1267.68 165.157C1267.81 163.32 1266.28 162.352 1264.1 162.002C1261.92 161.653 1260.58 162.242 1260.39 163.42C1260.25 164.308 1260.76 165.257 1262.7 165.896L1265.83 166.904C1268.34 167.773 1270.7 169.281 1270.16 172.505C1269.58 176.02 1266.1 177.328 1261.81 176.649C1257.77 176.01 1254.57 173.893 1254.87 169.43L1258.36 170.019C1258.42 172.136 1259.85 173.244 1262.43 173.654L1262.41 173.644Z" fill="#808080"/>
<path d="M1293.28 173.474L1279.82 171.547C1279.81 174.123 1281.16 176.279 1284.37 176.739C1286.05 176.978 1287.4 176.659 1288.25 175.7L1292.41 176.289C1290.86 179.155 1287.56 180.503 1283.84 179.973C1278.45 179.205 1275.37 174.872 1276.12 169.9C1276.87 164.957 1281.05 161.633 1286.27 162.381C1291.97 163.19 1294.87 167.933 1293.29 173.484L1293.28 173.474ZM1280.28 169.001L1289.91 170.379C1290.1 167.613 1288.49 165.896 1285.83 165.507C1282.98 165.097 1281.07 166.715 1280.28 169.001Z" fill="#808080"/>
<path d="M1338.54 169.27L1330.35 185.355L1327.03 184.976L1324.37 172.885L1318.92 184.067L1315.6 183.688L1311.4 166.205L1315.5 166.665L1317.91 178.296L1323.34 167.543L1326.6 167.913L1329.37 179.554L1334.43 168.801L1338.54 169.261V169.27Z" fill="#808080"/>
<path d="M1360.36 178.775L1359.46 188.15L1355.64 187.801L1356.52 178.636C1356.82 175.56 1355.28 173.763 1352.5 173.504C1350.85 173.354 1348.96 174.083 1347.45 175.61L1346.36 186.952L1342.54 186.603L1344.97 161.193L1348.79 161.543L1347.83 171.637C1349.46 170.519 1351.39 170.009 1353.59 170.209C1358.07 170.618 1360.83 173.903 1360.36 178.765V178.775Z" fill="#808080"/>
<path d="M1372.35 172.206L1370.98 189.049L1367.2 188.759L1368.56 171.916L1372.35 172.206ZM1368.52 165.666C1368.62 164.338 1369.77 163.46 1371.13 163.56C1372.45 163.659 1373.47 164.718 1373.37 166.036C1373.27 167.364 1372.08 168.242 1370.76 168.142C1369.4 168.042 1368.41 166.984 1368.52 165.666Z" fill="#808080"/>
<path d="M1391.5 190.187C1389.95 190.627 1388.69 190.686 1387.52 190.617C1383.1 190.327 1380.92 187.601 1381.22 183.258L1381.71 176.02L1377.62 175.76L1377.84 172.645L1381.92 172.905L1382.34 166.705L1386.17 166.954L1385.75 173.154L1392.16 173.564L1391.94 176.679L1385.54 176.269L1385.05 183.518C1384.88 185.954 1386.06 187.072 1388.19 187.212C1389.22 187.282 1390.27 187.062 1391.18 186.753L1391.5 190.197V190.187Z" fill="#808080"/>
<path d="M1413.82 184.247L1400.23 183.578C1400.46 186.144 1402.02 188.16 1405.26 188.32C1406.94 188.4 1408.27 187.961 1409.01 186.922L1413.21 187.132C1411.95 190.127 1408.8 191.775 1405.05 191.585C1399.6 191.315 1396.12 187.292 1396.38 182.27C1396.63 177.278 1400.48 173.584 1405.75 173.843C1411.49 174.123 1414.84 178.576 1413.81 184.247H1413.82ZM1400.44 181.002L1410.16 181.481C1410.08 178.705 1408.32 177.148 1405.63 177.008C1402.77 176.868 1401 178.656 1400.44 181.002Z" fill="#808080"/>
<path d="M1439.53 189.758C1441.78 189.808 1443.34 189.129 1443.37 187.791C1443.39 186.783 1442.56 186.044 1441.09 185.764L1437.27 185.035C1434.63 184.546 1432.19 183.198 1432.26 180.143C1432.35 176.868 1435.3 174.922 1439.62 175.021C1442.98 175.101 1446.82 176.299 1447.08 180.722L1443.54 180.642C1443.4 178.805 1441.76 178.047 1439.55 177.997C1437.33 177.947 1436.09 178.705 1436.07 179.894C1436.05 180.792 1436.7 181.671 1438.72 182.04L1441.95 182.619C1444.55 183.148 1447.11 184.317 1447.03 187.591C1446.95 191.146 1443.7 192.913 1439.35 192.813C1435.25 192.723 1431.79 191.066 1431.45 186.593L1435 186.713C1435.36 188.809 1436.92 189.708 1439.54 189.758H1439.53Z" fill="#808080"/>
<path d="M1471.63 184.297C1471.6 189.219 1467.64 193.113 1462.78 193.093C1460.56 193.083 1458.69 192.424 1457.25 191.335L1457.2 201L1453.37 200.98L1453.52 175.75L1457.35 175.77V177.098C1458.78 176.03 1460.67 175.391 1462.88 175.401C1467.74 175.431 1471.67 179.364 1471.63 184.287V184.297ZM1467.79 184.277C1467.81 181.261 1465.5 178.656 1462.29 178.636C1460.38 178.636 1458.61 179.334 1457.31 181.122L1457.28 187.302C1458.56 189.109 1460.32 189.838 1462.23 189.848C1465.44 189.868 1467.77 187.292 1467.79 184.277Z" fill="#808080"/>
<path d="M1495.51 175.57L1495.75 192.464L1491.96 192.513L1491.93 191.186C1490.48 192.324 1488.61 192.993 1486.39 193.023C1481.53 193.093 1477.56 189.189 1477.49 184.267C1477.42 179.344 1481.27 175.341 1486.14 175.271C1488.35 175.241 1490.23 175.86 1491.73 176.958L1491.71 175.63L1495.51 175.58V175.57ZM1491.88 187.122L1491.79 181.012C1490.48 179.235 1488.66 178.606 1486.74 178.636C1483.58 178.676 1481.28 181.192 1481.32 184.207C1481.36 187.222 1483.72 189.678 1486.9 189.628C1488.81 189.598 1490.61 188.929 1491.87 187.112L1491.88 187.122Z" fill="#808080"/>
<path d="M1515.79 185.774L1519.69 185.674C1519.17 189.568 1515.78 192.354 1511.43 192.464C1506.23 192.593 1502.19 188.849 1502.04 183.827C1501.91 178.835 1505.75 174.852 1510.94 174.722C1515.3 174.612 1518.83 177.218 1519.56 181.082L1515.66 181.182C1515.12 179.295 1513.36 178.037 1511.04 178.096C1507.83 178.176 1505.79 180.672 1505.87 183.728C1505.96 186.783 1508.13 189.169 1511.33 189.089C1513.66 189.029 1515.35 187.691 1515.78 185.774H1515.79Z" fill="#808080"/>
<path d="M1543.09 183.358L1529.5 184.017C1530 186.543 1531.76 188.41 1534.99 188.25C1536.68 188.17 1537.95 187.601 1538.6 186.493L1542.8 186.293C1541.84 189.398 1538.88 191.335 1535.13 191.525C1529.68 191.785 1525.79 188.13 1525.54 183.098C1525.28 178.106 1528.73 174.053 1534 173.803C1539.74 173.524 1543.53 177.627 1543.08 183.368L1543.09 183.358ZM1529.45 181.431L1539.17 180.962C1538.81 178.206 1536.9 176.828 1534.2 176.958C1531.34 177.098 1529.77 179.045 1529.45 181.431Z" fill="#808080"/>
<path d="M1564.41 163.769L1566.28 189.219L1562.46 189.488L1560.59 164.039L1564.41 163.769Z" fill="#808080"/>
<path d="M1571.97 165.616C1571.85 164.288 1572.85 163.24 1574.2 163.13C1575.52 163.03 1576.71 163.909 1576.81 165.237C1576.91 166.565 1575.9 167.613 1574.58 167.723C1573.22 167.833 1572.07 166.944 1571.97 165.616ZM1576.82 171.467L1578.21 188.31L1574.42 188.61L1573.03 171.767L1576.82 171.467Z" fill="#808080"/>
<path d="M1592.8 179.804L1589.85 183.328L1590.24 187.302L1586.42 187.651L1583.95 162.242L1587.77 161.892L1589.37 178.426L1596.71 169.73L1601.56 169.28L1595.16 176.948L1604.29 186.004L1599.33 186.463L1592.8 179.804Z" fill="#808080"/>
<path d="M1624.15 176.489L1610.63 177.957C1611.29 180.453 1613.16 182.2 1616.39 181.85C1618.08 181.671 1619.3 181.032 1619.87 179.884L1624.05 179.434C1623.3 182.589 1620.46 184.706 1616.71 185.115C1611.29 185.704 1607.19 182.28 1606.62 177.278C1606.05 172.316 1609.24 168.062 1614.48 167.493C1620.2 166.874 1624.24 170.738 1624.15 176.499V176.489ZM1610.41 175.371L1620.08 174.322C1619.55 171.597 1617.55 170.329 1614.87 170.618C1612.01 170.928 1610.58 172.965 1610.41 175.371Z" fill="#808080"/>
<path d="M1660.11 170.748C1660.84 175.87 1657.56 180.053 1652.23 180.772C1646.9 181.491 1642.59 178.336 1641.85 173.214C1641.11 168.092 1644.4 163.909 1649.73 163.19C1655.05 162.471 1659.37 165.626 1660.11 170.748ZM1656.32 171.257C1655.87 168.092 1653.32 166.116 1650.22 166.535C1647.11 166.954 1645.21 169.53 1645.66 172.705C1646.11 175.84 1648.66 177.847 1651.76 177.428C1654.87 177.008 1656.76 174.392 1656.32 171.257Z" fill="#808080"/>
<path d="M1681.63 158.967L1684.31 175.66L1680.56 176.229L1680.3 174.592C1679.02 176.13 1677.28 177.168 1675.05 177.507C1670.61 178.186 1667.13 175.551 1666.36 170.758L1664.87 161.523L1668.62 160.954L1670.08 169.969C1670.57 173.025 1672.55 174.462 1675.29 174.053C1676.97 173.793 1678.57 172.605 1679.67 170.688L1677.88 159.536L1681.63 158.967Z" fill="#808080"/>
<path d="M1698.99 155.722L1699.6 159.197C1696.9 159.756 1695.01 161.093 1693.82 163.3L1695.66 173.783L1691.88 174.412L1688.95 157.769L1692.73 157.14L1693.13 159.406C1694.4 157.479 1696.38 156.161 1698.99 155.722Z" fill="#808080"/>
<path d="M1735.61 157.899C1736.58 162.771 1733.49 167.384 1728.71 168.292C1726.54 168.701 1724.56 168.422 1722.94 167.603L1723.2 168.911L1719.44 169.63L1714.42 144.59L1718.17 143.871L1720.13 153.605C1721.33 152.278 1723.05 151.289 1725.22 150.88C1729.99 149.971 1734.64 153.106 1735.61 157.909V157.899ZM1731.85 158.617C1731.26 155.692 1728.49 153.695 1725.34 154.294C1723.46 154.654 1721.84 155.582 1720.93 157.549L1722.16 163.649C1723.77 165.137 1725.63 165.437 1727.51 165.077C1730.66 164.478 1732.44 161.573 1731.85 158.608V158.617Z" fill="#808080"/>
<path d="M1758.7 154.304L1745.4 157.08C1746.31 159.496 1748.35 161.064 1751.51 160.405C1753.17 160.055 1754.33 159.306 1754.78 158.108L1758.89 157.25C1758.46 160.465 1755.85 162.841 1752.18 163.61C1746.84 164.718 1742.41 161.713 1741.33 156.79C1740.26 151.908 1743 147.365 1748.15 146.287C1753.77 145.119 1758.19 148.573 1758.69 154.304H1758.7ZM1744.92 154.534L1754.43 152.547C1753.62 149.881 1751.5 148.823 1748.87 149.372C1746.05 149.961 1744.83 152.128 1744.91 154.534H1744.92Z" fill="#808080"/>
<path d="M1772.98 155.972C1775.17 155.482 1776.51 154.444 1776.21 153.146C1775.97 152.168 1774.99 151.649 1773.49 151.728L1769.61 151.938C1766.93 152.098 1764.22 151.379 1763.52 148.404C1762.77 145.219 1765.13 142.623 1769.34 141.674C1772.61 140.946 1776.65 141.185 1778.02 145.409L1774.57 146.177C1773.96 144.43 1772.18 144.091 1770.03 144.58C1767.88 145.069 1766.88 146.097 1767.14 147.256C1767.35 148.134 1768.2 148.823 1770.25 148.703L1773.52 148.484C1776.19 148.364 1778.95 148.893 1779.71 152.078C1780.53 155.542 1777.82 158.028 1773.58 158.987C1769.6 159.885 1765.82 159.107 1764.37 154.863L1767.83 154.125C1768.7 156.072 1770.45 156.561 1773 155.992L1772.98 155.972Z" fill="#808080"/>
<path d="M1799.37 152.258C1798.03 153.136 1796.85 153.566 1795.71 153.835C1791.41 154.863 1788.49 152.887 1787.43 148.663L1785.66 141.615L1781.69 142.563L1780.93 139.528L1784.9 138.579L1783.39 132.539L1787.11 131.65L1788.63 137.691L1794.87 136.203L1795.63 139.238L1789.4 140.726L1791.17 147.775C1791.76 150.151 1793.24 150.87 1795.32 150.381C1796.32 150.141 1797.25 149.622 1798.02 149.073L1799.39 152.258H1799.37Z" fill="#808080"/>
<path d="M1818.84 130.143L1825.47 128.416L1826.3 131.441L1819.67 133.168L1823.31 146.467L1819.64 147.425L1816.01 134.126L1811.26 135.355L1810.43 132.329L1815.18 131.101L1814.58 128.915C1813.47 124.851 1815.67 121.596 1819.63 120.568C1820.74 120.279 1821.89 120.169 1823.3 120.169L1823.6 123.364C1822.63 123.314 1821.59 123.404 1820.91 123.583C1818.74 124.152 1817.68 125.84 1818.25 127.956L1818.84 130.143Z" fill="#808080"/>
<path d="M1839.92 124.122L1840.9 127.517C1838.26 128.346 1836.51 129.863 1835.57 132.18L1838.51 142.423L1834.81 143.432L1830.15 127.168L1833.85 126.159L1834.48 128.376C1835.55 126.329 1837.37 124.831 1839.93 124.132L1839.92 124.122Z" fill="#808080"/>
<path d="M1843.89 116.924C1843.51 115.646 1844.25 114.428 1845.57 114.058C1846.85 113.699 1848.18 114.328 1848.56 115.606C1848.93 116.884 1848.15 118.112 1846.88 118.471C1845.57 118.841 1844.26 118.202 1843.89 116.924ZM1849.84 121.716L1854.65 137.94L1851 138.969L1846.19 122.745L1849.84 121.716Z" fill="#808080"/>
<path d="M1876.08 124.043L1863.06 127.876C1864.17 130.213 1866.34 131.6 1869.44 130.692C1871.06 130.213 1872.14 129.364 1872.5 128.136L1876.53 126.948C1876.37 130.183 1873.98 132.769 1870.38 133.827C1865.16 135.364 1860.49 132.729 1858.99 127.906C1857.51 123.124 1859.85 118.382 1864.89 116.894C1870.4 115.266 1875.09 118.352 1876.08 124.033V124.043ZM1862.36 125.39L1871.68 122.645C1870.65 120.059 1868.45 119.17 1865.88 119.929C1863.12 120.738 1862.09 122.994 1862.37 125.39H1862.36Z" fill="#808080"/>
<path d="M1897.79 115.137L1900.73 124.102L1897.07 125.241L1894.21 116.475C1893.24 113.529 1891.11 112.461 1888.44 113.29C1886.86 113.779 1885.42 115.177 1884.64 117.153L1888.19 128.006L1884.54 129.144L1879.26 113.06L1882.92 111.922L1883.39 113.36C1884.43 111.712 1886.01 110.504 1888.12 109.845C1892.4 108.507 1896.26 110.474 1897.79 115.137Z" fill="#808080"/>
<path d="M1915.64 92.343L1924 116.534L1920.4 117.713L1919.95 116.415C1918.93 117.962 1917.36 119.16 1915.26 119.849C1910.65 121.367 1905.66 118.831 1904.03 114.128C1902.43 109.496 1904.84 104.534 1909.45 103.016C1911.55 102.327 1913.53 102.357 1915.29 102.956L1912.04 93.5211L1915.63 92.343H1915.64ZM1918.62 112.571L1916.64 106.81C1914.82 105.512 1912.9 105.452 1911.08 106.051C1908.08 107.04 1906.69 110.115 1907.66 112.94C1908.65 115.806 1911.68 117.463 1914.68 116.475C1916.49 115.875 1918 114.707 1918.62 112.561V112.571Z" fill="#808080"/>
</g>
<defs>
<clipPath id="clip0_2568_2631">
<rect width="1924" height="201" fill="white" transform="translate(1924 6)"/>
</clipPath>
<clipPath id="clip1_2568_2631">
<rect width="1924" height="201" fill="white"/>
</clipPath>
</defs>
</svg>
